<svg id="freepik_stories-my-password" data-name="freepik stories-my-password" xmlns="http://www.w3.org/2000/svg" viewBox="0 0 457.44 444.54"><defs><style>.cls-1{fill:#e0e0e0;}.cls-2{fill:#fafafa;}.cls-3{fill:#fff;}.cls-4{fill:#ebebeb;}.cls-5{fill:#f5f5f5;}.cls-6{fill:#468faf;}.cls-7{opacity:0.3;}.cls-8{opacity:0.5;}.cls-9{fill:#263238;}.cls-10{fill:#ffbe9d;}.cls-11{opacity:0.6;}.cls-12{fill:#455a64;}.cls-13{fill:#eb996e;}.cls-14{fill:none;}</style></defs><g id="freepik--background-complete--inject-5"><path id="elbck8khyez47" class="cls-1" d="M375.25,361.79a40.72,40.72,0,0,0-17.45-6c-2.85-.3-6-.21-8.26,1.51a1.72,1.72,0,0,0-.85,1.51,1.86,1.86,0,0,0,.81,1c7.1,5.42,17.84,6.1,25.75,2" transform="translate(-27 -35.89)"/><path id="eleioezx4jva9" class="cls-1" d="M374.8,361.3a85.68,85.68,0,0,1-11.27-9.92,28.47,28.47,0,0,1-7.07-13.07c-.3-1.48-.39-3.19.56-4.37,9,7,16,16.09,17.78,27.36" transform="translate(-27 -35.89)"/><path id="ely6eq9zoncp8" class="cls-1" d="M375.15,361.73a41.13,41.13,0,0,1,.21-14.8c1.13-4.83,3.76-9.46,7.89-12.21,1.55,3.63.88,7.81-.21,11.6a56.18,56.18,0,0,1-7.82,16.45" transform="translate(-27 -35.89)"/><path id="el0e32wnskzef" class="cls-1" d="M384,377.51c-5.34.65-10,3.46-14,7.08a26.51,26.51,0,0,0-8,13.74c5.25-.32,9.7-4,12.92-8.17s5.46-8.69,9-12.57" transform="translate(-27 -35.89)"/><path id="elqh5ai3cr4s" class="cls-1" d="M385.87,380a34.54,34.54,0,0,1,4-32.65c3.05,10.84,1.93,23.07-4,32.65" transform="translate(-27 -35.89)"/><path id="eljfd5x99zf6" class="cls-1" d="M397.51,393.89a25,25,0,0,0-23.86,13.73c-.3.59-.56,1.34-.16,1.87a1.78,1.78,0,0,0,1.58.47c4.7-.31,8.87-3.13,12.31-6.36s6.44-6.94,10.24-9.73" transform="translate(-27 -35.89)"/><path id="elknyq7awm59" class="cls-1" d="M397.14,393.13a44.43,44.43,0,0,1-.44-24.83c.87-3.19,2.34-6.56,5.29-8.05a.81.81,0,0,1,1.33.45,15,15,0,0,1,1.25,7.12,45,45,0,0,1-1.12,7.21c-.93,4.41-1.43,9.14-3.84,12.94a26.11,26.11,0,0,0-1.54,2.85c-.46,1-.46,1.3-.88,2.07" transform="translate(-27 -35.89)"/><path id="elkej4sjxbzh" class="cls-1" d="M427.94,397.72c-2.28-8.68.14-19.2,5.61-26.32.41-.52.94-1.09,1.6-1,1,.09,1.27,1.43,1.22,2.44a47.44,47.44,0,0,1-8.43,24.9" transform="translate(-27 -35.89)"/><path id="el742h53l54ir" class="cls-1" d="M430.72,399.62c10.55,2.74,22.64.08,31.42-6.39a25.43,25.43,0,0,0-17-2.09c-5.68,1.3-10.87,3.85-14.41,8.48" transform="translate(-27 -35.89)"/><path id="elh5gqxqimgxm" class="cls-1" d="M433.06,393.84c5.91-9.63,17.23-15.92,28.51-16.49-1.3,4.59-5.07,8.16-9.32,10.31s-9,3.1-13.69,4c-1.82.35-4.32.74-5.5,2.17" transform="translate(-27 -35.89)"/><path id="eli0cya9605j8" class="cls-1" d="M428.53,365.79c1.6-5.48,3.21-11,3.65-16.7s-.38-11.63-3.33-16.51c-5.52,10.67-6.08,23.15-.49,33.79" transform="translate(-27 -35.89)"/><path id="elxum1vyotevf" class="cls-1" d="M447.1,356.4c6.46-11.72,19.62-21.09,32.94-22.4-5.14,12.79-19.15,22.68-32.94,22.4" transform="translate(-27 -35.89)"/><path id="eln9d15v0t2im" class="cls-1" d="M443.05,358.7c9.62,1.47,17.82,7.61,26.81,11.34a12,12,0,0,0,6.06,1.16,4.74,4.74,0,0,0,3-8.39,12.75,12.75,0,0,0-4.4-2.67c-9.8-4.08-20.3-4.18-30.62-1.71" transform="translate(-27 -35.89)"/><path id="elmgjuu9u7mlh" class="cls-1" d="M437.48,365.45c2.18.62,2.92,1.75,4.65,3.22a50.14,50.14,0,0,0,20.33,10.45c.77.19,1.79.27,2.18-.44s-.09-1.35-.53-1.9a28,28,0,0,0-12.27-8.33c-4.7-1.75-8.76-3.85-14.36-3.4" transform="translate(-27 -35.89)"/><path id="elszlwv3irkx" class="cls-1" d="M431.19,324.69a38.51,38.51,0,0,0,29.5,10,2.1,2.1,0,0,0,1.35-.49c.74-.8-.15-2.05-1-2.72-8.67-6.77-19.18-9.57-29.83-6.83" transform="translate(-27 -35.89)"/><path id="eld0jvi7yhc7f" class="cls-1" d="M438.64,322a41.15,41.15,0,0,1,36.82-6.07c-4.64,4.57-11.07,7-17.55,7.7A55.39,55.39,0,0,1,438.64,322" transform="translate(-27 -35.89)"/><path id="elz4l0yn7e51b" class="cls-1" d="M435.68,303.23c-.85-8.66-.3-15.49-.9-24.19,0-.69-.19-1.53-.84-1.78-.91-.35-1.66.77-2,1.69A27.7,27.7,0,0,0,435.67,303" transform="translate(-27 -35.89)"/><path id="el1308y0gk67so" class="cls-1" d="M435.06,304.19c5.87-3.63,10.27-8.37,14.34-13.94,2.83-3.87,5.22-8.52,4.58-13.27-4-.08-7.76,2.11-10.35,5.13a29,29,0,0,0-5.27,10.61c-1.15,3.81-1.95,7.73-3.3,11.47" transform="translate(-27 -35.89)"/><path id="elacoxbh0i4pb" class="cls-1" d="M449.15,300.27a115.42,115.42,0,0,0,35.29-20.81c-4.21-1.69-9-.68-13.26,1-9.62,3.89-17.49,10.45-22.21,19.7" transform="translate(-27 -35.89)"/><path id="elathiix9hv9" class="cls-1" d="M439,308.92c6.52.72,13.13,1.18,19.6.1s12.36-3.58,18.29-6.08a2.18,2.18,0,0,0,1.25-.94,1.44,1.44,0,0,0-.45-1.57,3.8,3.8,0,0,0-1.56-.73c-6.45-1.8-13.42-1-19.77,1.18a92.22,92.22,0,0,0-17.36,8" transform="translate(-27 -35.89)"/><path id="elvvoh6dwa8yg" class="cls-1" d="M401.82,325c-4.44-9-4.16-19.45-.32-28.69,2.71,4.11,3,9.36,2.54,14.26s-2,9.95-2.08,14.87" transform="translate(-27 -35.89)"/><path id="elzabf4hwk1yf" class="cls-1" d="M384.06,316a40,40,0,0,0-29.73,12.67c5.54.87,11.24-.56,16.28-3s9.52-5.91,13.95-9.34" transform="translate(-27 -35.89)"/><path id="el3b1ntpwtpi8" class="cls-1" d="M372.13,312c-5.43-.44-10.66-1.12-15.88.48s-10,5.23-12.1,10.26A28.71,28.71,0,0,0,359,320a86.21,86.21,0,0,0,13.13-8" transform="translate(-27 -35.89)"/><path id="elai9wgslbj84" class="cls-1" d="M389.8,312.22c-4.88-3.2-9.9-6.46-15.58-7.78s-12.28-.35-16.25,3.94c4.61,2.7,10.19,3,15.53,3s11.88-.06,16.91,1.72" transform="translate(-27 -35.89)"/><path id="elgjamzpteqyt" class="cls-1" d="M389.83,312.48c-8.35-8.2-11.51-22.93-8.16-34.14a52,52,0,0,1,8.16,34.14" transform="translate(-27 -35.89)"/><path id="el0stdrmbo1uem" class="cls-1" d="M412.79,289.25c1.57-3.66,2.68-7.51,4.09-11.23a32.33,32.33,0,0,1,5.84-10.35,15.33,15.33,0,0,1,10.34-5.36,41.64,41.64,0,0,1-20.07,27" transform="translate(-27 -35.89)"/><path id="elrur2w6bayb" class="cls-1" d="M408.64,294.09C406,290.5,403,285.63,399.48,283s-8.13-4.29-12.44-3.26a29,29,0,0,0,21.6,14.4" transform="translate(-27 -35.89)"/><path id="elf4atr1k951" class="cls-1" d="M409.47,289.55c-1.71-4.34-3.43-8.73-4.12-13.34s-.27-9.54,2.09-13.57c4.58,8.67,6.05,18,2.26,27" transform="translate(-27 -35.89)"/><path id="elcjlm3wa0ahj" class="cls-1" d="M412.83,262.64c2.6-8.59,10.46-14.91,18.95-17.81a7.15,7.15,0,0,1,3.33-.5,2.87,2.87,0,0,1,2.44,2c.31,1.46-.89,2.77-2,3.74a64.23,64.23,0,0,1-22.69,12.53" transform="translate(-27 -35.89)"/><path id="elsxzvpripn1" class="cls-1" d="M412.93,255.62c.33-5.54.67-11.16,2.47-16.4s5.28-10.17,10.33-12.47c.85,5.59-1.61,11.16-4.59,16s-6.56,9.36-8.35,14.72" transform="translate(-27 -35.89)"/><path id="elidtnmgtg4y8" class="cls-1" d="M412.79,259.43c-2.15-6.26-2.37-14.21-6.12-19.66-2.62-3.81-6.81-6.41-9.07-10.45a15.91,15.91,0,0,0,.53,11.86,34.61,34.61,0,0,0,6.93,9.93c2.78,3,5.15,5.19,7.73,8.32" transform="translate(-27 -35.89)"/><path id="el5erlz83q629" class="cls-1" d="M412.83,443.76c-.16,0-.31-41.75-.32-93.25s.11-93.26.28-93.26.31,41.75.32,93.26S413,443.76,412.83,443.76Z" transform="translate(-27 -35.89)"/><path id="el24p4n96yigw" class="cls-1" d="M449.32,318.68a8.73,8.73,0,0,1-1.57.59l-4.32,1.46c-3.64,1.24-8.65,3-14.08,5.27s-10.45,4.18-13.34,6.68a9.82,9.82,0,0,0-2.68,3.54c-.41,1-.48,1.58-.54,1.57a1.55,1.55,0,0,1,0-.43,6.59,6.59,0,0,1,.3-1.22,9.49,9.49,0,0,1,2.62-3.78,23.78,23.78,0,0,1,5.79-3.6c2.31-1.08,4.88-2.2,7.6-3.32,5.45-2.24,10.49-4,14.18-5.11,1.84-.58,3.34-1,4.38-1.28A10.48,10.48,0,0,1,449.32,318.68Z" transform="translate(-27 -35.89)"/><path id="elfndqd5lgoee" class="cls-1" d="M461.28,289.31a3.27,3.27,0,0,1-.44.47L459.5,291l-5,4.55L437.85,310.4c-6.5,5.79-12.11,11.31-16,15.48-1.94,2.07-3.48,3.8-4.53,5l-1.21,1.38a2.79,2.79,0,0,1-.45.46,3.17,3.17,0,0,1,.36-.54c.25-.33.62-.83,1.12-1.45,1-1.25,2.49-3,4.4-5.14A212.75,212.75,0,0,1,437.45,310c6.52-5.77,12.46-10.95,16.77-14.69,2.11-1.82,3.85-3.31,5.13-4.4.57-.48,1-.86,1.41-1.18A2.66,2.66,0,0,1,461.28,289.31Z" transform="translate(-27 -35.89)"/><path id="el2qzd6byvvkq" class="cls-1" d="M430.84,316.28c-.17-.07,1.18-3.21,2.54-7.17s2-7.31,2.18-7.28A24.77,24.77,0,0,1,434,309.3a47.8,47.8,0,0,1-2,5A8,8,0,0,1,430.84,316.28Z" transform="translate(-27 -35.89)"/><path id="elsay9rtm95jc" class="cls-1" d="M412.87,341.56a7.93,7.93,0,0,1-1-1.17l-2.57-3.28c-2.15-2.79-5.13-6.64-8.47-10.84s-6.41-8-8.63-10.72l-2.63-3.24a7.85,7.85,0,0,1-.9-1.24,7.87,7.87,0,0,1,1.08,1.08c.67.73,1.62,1.8,2.77,3.13,2.31,2.66,5.44,6.4,8.78,10.61s6.27,8.11,8.34,11c1,1.43,1.86,2.59,2.42,3.41A7.52,7.52,0,0,1,412.87,341.56Z" transform="translate(-27 -35.89)"/><path id="elvedcp6ms9j" class="cls-1" d="M404.87,331.29a14.85,14.85,0,0,1-3.35-6.28,17.85,17.85,0,0,1-.76-6.33H401c-.12.48-.2.73-.25.73s0-.28,0-.78H401a27.42,27.42,0,0,0,1.07,6.16A42.07,42.07,0,0,0,404.87,331.29Z" transform="translate(-27 -35.89)"/><path id="el8iwk8slqr1o" class="cls-1" d="M394.54,318.29a11.16,11.16,0,0,0-2.34-1.36,15.87,15.87,0,0,0-6.5-.51,40.32,40.32,0,0,0-6.54,1.05,20.66,20.66,0,0,1-2.69.65,9.18,9.18,0,0,1,2.57-1.06,30.35,30.35,0,0,1,6.62-1.25,14.14,14.14,0,0,1,6.7.73A4.1,4.1,0,0,1,394.54,318.29Z" transform="translate(-27 -35.89)"/><path id="eladmgo3vxcjm" class="cls-1" d="M392.09,315.14c0,.1-1.36-.54-3.58-1.3a36.14,36.14,0,0,0-18.07-1.38c-2.31.41-3.71.85-3.74.75a3.22,3.22,0,0,1,.95-.41,25.14,25.14,0,0,1,2.7-.76,32,32,0,0,1,18.3,1.4,21.81,21.81,0,0,1,2.56,1.16A3.78,3.78,0,0,1,392.09,315.14Z" transform="translate(-27 -35.89)"/><path id="eljdz791oqou" class="cls-1" d="M412.79,301.83a75.28,75.28,0,0,1-2.61-9.08c-1.29-5.06-2.2-9.2-2-9.24s1.33,4,2.61,9.09S413,301.79,412.79,301.83Z" transform="translate(-27 -35.89)"/><path id="el9pzgabngmg" class="cls-1" d="M413,301.83c-.18.06-.94-2.66-2.9-5.44a23.42,23.42,0,0,0-4.27-4.4,4,4,0,0,1,1.65.85,13.13,13.13,0,0,1,3.11,3.2A12.29,12.29,0,0,1,413,301.83Z" transform="translate(-27 -35.89)"/><path id="el8r37kbitq8k" class="cls-1" d="M412.83,421.5c-.06,0-.19-1-.66-2.77a38.88,38.88,0,0,0-2.79-7.23c-2.88-5.9-8.13-13.37-14.8-20.86-3.31-3.78-6.51-7.34-9.24-10.75a76.16,76.16,0,0,1-6.6-9.52,45.14,45.14,0,0,1-3.33-7.07c-.31-.87-.53-1.55-.66-2a3.44,3.44,0,0,1-.17-.72c.06,0,.36.95,1.05,2.66a51.59,51.59,0,0,0,3.48,6.93,78.22,78.22,0,0,0,6.67,9.39c2.73,3.38,5.94,6.92,9.25,10.7,6.69,7.51,11.93,15.08,14.74,21.07a36.27,36.27,0,0,1,2.63,7.36,16.47,16.47,0,0,1,.37,2.1A2.8,2.8,0,0,1,412.83,421.5Z" transform="translate(-27 -35.89)"/><path id="el6p8vawizlyu" class="cls-1" d="M445.81,384.26a15.56,15.56,0,0,1-1.73,1,36.56,36.56,0,0,0-4.49,3,51.59,51.59,0,0,0-5.88,5.37c-2.07,2.19-4.2,4.72-6.37,7.44-4.34,5.45-8.4,10.27-10.84,14.12-1.23,1.91-2.13,3.52-2.72,4.64a13.36,13.36,0,0,1-.95,1.74A2.21,2.21,0,0,1,413,421c.13-.31.31-.77.58-1.35a45.62,45.62,0,0,1,2.57-4.77c2.37-3.94,6.4-8.83,10.73-14.27,2.18-2.72,4.33-5.26,6.44-7.44a47.43,47.43,0,0,1,6-5.33A31.89,31.89,0,0,1,444,385a14.41,14.41,0,0,1,1.35-.59A1.77,1.77,0,0,1,445.81,384.26Z" transform="translate(-27 -35.89)"/><path id="elvngnkmdh3k" class="cls-1" d="M446.45,396.34a23.61,23.61,0,0,1-3.65.53,48.26,48.26,0,0,0-8.66,1.71,26,26,0,0,0-7.76,4.07c-1.79,1.38-2.63,2.52-2.72,2.46a3.13,3.13,0,0,1,.55-.84,14,14,0,0,1,1.9-1.95A23.49,23.49,0,0,1,434,398a38.77,38.77,0,0,1,8.81-1.56A19.27,19.27,0,0,1,446.45,396.34Z" transform="translate(-27 -35.89)"/><path id="elj1dhaei9wi" class="cls-1" d="M424.73,403.78c-.19-.11,1.46-2.62,2.73-6s1.48-6.41,1.7-6.37a6.1,6.1,0,0,1-.06,2A20.62,20.62,0,0,1,428,398a21.54,21.54,0,0,1-2.12,4.24A6.19,6.19,0,0,1,424.73,403.78Z" transform="translate(-27 -35.89)"/><path id="el4l48eukv91h" class="cls-1" d="M456.48,351.82a2.49,2.49,0,0,1-.58.31l-1.72.78c-.75.33-1.66.74-2.69,1.28s-2.24,1.08-3.49,1.83l-2,1.13c-.69.4-1.38.87-2.1,1.33-1.47.89-2.94,2-4.52,3.11a84.08,84.08,0,0,0-9.41,8.28,86.4,86.4,0,0,0-8,9.7c-1.07,1.61-2.11,3.11-3,4.61-.43.75-.88,1.44-1.25,2.15l-1.07,2c-.71,1.28-1.22,2.5-1.71,3.55s-.89,2-1.18,2.73-.53,1.29-.72,1.75a3.23,3.23,0,0,1-.29.59,2.66,2.66,0,0,1,.17-.63c.16-.48.37-1.07.62-1.79.32-.95.68-1.88,1.09-2.79.47-1.06.95-2.3,1.64-3.6l1-2.06c.36-.72.8-1.43,1.23-2.18.82-1.52,1.86-3,2.92-4.68A74.35,74.35,0,0,1,439,361.11c1.6-1.11,3.09-2.2,4.58-3.08.74-.45,1.43-.92,2.13-1.31l2-1.1c1.27-.74,2.49-1.26,3.55-1.77s2-.89,2.74-1.18l1.77-.68A2.74,2.74,0,0,1,456.48,351.82Z" transform="translate(-27 -35.89)"/><path id="el488lvl7n1n9" class="cls-1" d="M430.39,369.31a4.18,4.18,0,0,1,1.43-2.14A9.15,9.15,0,0,1,437.6,365a16.07,16.07,0,0,1,6.09,1.19,8.92,8.92,0,0,1,2.3,1.12,15.85,15.85,0,0,1-2.44-.71,18.14,18.14,0,0,0-5.93-1,9.43,9.43,0,0,0-5.52,1.93A18,18,0,0,0,430.39,369.31Z" transform="translate(-27 -35.89)"/><path id="el0rnsh9go2d4" class="cls-1" d="M426.49,373.33c-.17-.09,1.3-2.25,1.64-5.34s-.55-5.52-.37-5.57.4.54.68,1.55a11.05,11.05,0,0,1,.29,4.09,10.75,10.75,0,0,1-1.22,3.91C427,372.9,426.55,373.37,426.49,373.33Z" transform="translate(-27 -35.89)"/><path id="eljhwt48gdudl" class="cls-1" d="M384,427.49c.9,15.95,5.71,32.18,13.11,48.59h32.16c7.05-16.24,11.53-32.45,12.33-48.59Z" transform="translate(-27 -35.89)"/><path id="elavvoz3ck5ra" class="cls-2" d="M436.37,453.31c0,.17-10.59.3-23.65.3s-23.65-.13-23.65-.3,10.59-.3,23.65-.3S436.37,453.14,436.37,453.31Z" transform="translate(-27 -35.89)"/><path id="eletopuac4c1o" class="cls-2" d="M435.66,459.09c0,.17-9.93.3-22.18.3s-22.17-.13-22.17-.3,9.93-.3,22.17-.3S435.66,458.92,435.66,459.09Z" transform="translate(-27 -35.89)"/><path id="el5q064s7zifu" class="cls-2" d="M397.62,438a91.66,91.66,0,0,1,0,14.82c-.17,0-.31-3.31-.31-7.41S397.45,438,397.62,438Z" transform="translate(-27 -35.89)"/><path id="el8fvp37ecgr6" class="cls-2" d="M414.85,438c.17,0,.3,3.44.3,7.68s-.13,7.67-.3,7.67-.3-3.44-.3-7.67S414.68,438,414.85,438Z" transform="translate(-27 -35.89)"/><path id="eljs16ccbtij" class="cls-2" d="M431,437.83a102.33,102.33,0,0,1,0,15.66c-.17,0-.3-3.51-.3-7.83A55.7,55.7,0,0,1,431,437.83Z" transform="translate(-27 -35.89)"/><path id="elii98u0f6n4l" class="cls-2" d="M440.57,438c0,.17-12.42.31-27.74.31s-27.74-.14-27.74-.31,12.41-.3,27.74-.3S440.57,437.8,440.57,438Z" transform="translate(-27 -35.89)"/><rect id="el25qf0xqk1q" class="cls-1" x="354" y="0.02" width="77.06" height="80.33"/><rect id="el25shm20sl79" class="cls-2" x="348.78" y="0.02" width="77.06" height="80.33"/><path id="elby1q2v5zkqs" class="cls-1" d="M452.87,116.27H375.76V35.89h77.11Zm-77.07,0h77V35.93h-77Z" transform="translate(-27 -35.89)"/><rect id="eltp5e42velli" class="cls-3" x="359.14" y="10.82" width="56.35" height="58.73"/><path id="elxed0t4uyzl" class="cls-1" d="M386.14,105.84a9.3,9.3,0,0,1-1.39,1.61c-.9,1-2.17,2.24-3.58,3.63s-2.72,2.64-3.68,3.53a8.8,8.8,0,0,1-1.63,1.35,8.83,8.83,0,0,1,1.38-1.61c.9-.95,2.17-2.24,3.59-3.64s2.73-2.64,3.69-3.53A8.68,8.68,0,0,1,386.14,105.84Z" transform="translate(-27 -35.89)"/><path id="eluzieya04u1m" class="cls-1" d="M442.48,105.69a9,9,0,0,1,1.62,1.39c.95.9,2.24,2.17,3.63,3.58s2.64,2.72,3.53,3.68a8.8,8.8,0,0,1,1.35,1.63,8.83,8.83,0,0,1-1.61-1.38c-.95-.9-2.24-2.17-3.64-3.59s-2.64-2.73-3.53-3.69A8.74,8.74,0,0,1,442.48,105.69Z" transform="translate(-27 -35.89)"/><path id="elbra9ek9nbgl" class="cls-1" d="M442.33,46.87a9,9,0,0,1,1.39-1.62c.9-1,2.16-2.24,3.58-3.63S450,39,451,38.1a8.18,8.18,0,0,1,1.63-1.36,8.83,8.83,0,0,1-1.38,1.61c-.9.95-2.17,2.24-3.59,3.64s-2.73,2.64-3.69,3.53A9.28,9.28,0,0,1,442.33,46.87Z" transform="translate(-27 -35.89)"/><path id="el0v6dvp9volgf" class="cls-1" d="M386,47a8.27,8.27,0,0,1-1.62-1.39c-.95-.9-2.24-2.16-3.63-3.58s-2.64-2.72-3.53-3.68a8.8,8.8,0,0,1-1.35-1.63,8.83,8.83,0,0,1,1.61,1.38c.95.9,2.24,2.17,3.64,3.59s2.64,2.73,3.53,3.69A9.52,9.52,0,0,1,386,47Z" transform="translate(-27 -35.89)"/><path id="el1vc73mbxi5i" class="cls-1" d="M442.33,105.44v-4.27c0-2.78,0-6.83-.06-12,0-10.29-.06-24.94-.11-42.49l.22.22H386.2l.25-.25v58.73l-.21-.21,40.69.11,11.42.06h0L427,105.4l-40.82.11H386V46.31h56.66v.22c-.05,17.6-.09,32.31-.11,42.63,0,5.12,0,9.15-.06,11.92V105A2.25,2.25,0,0,1,442.33,105.44Z" transform="translate(-27 -35.89)"/><rect id="eloyrgajh8hs" class="cls-4" x="377.91" y="30.79" width="18.8" height="18.8"/><rect id="elu1ujnfrwn9n" class="cls-1" x="7.27" y="126.94" width="88" height="127.56"/><rect id="elqpptxu78yv" class="cls-5" x="2.86" y="126.94" width="88" height="127.56"/><rect id="elljt77p2fhm" class="cls-3" x="13.8" y="140.75" width="66.13" height="99.92"/><path id="elv5r4akbh7bl" class="cls-1" d="M106.93,276.57v-7.39c0-4.79,0-11.77-.06-20.58,0-17.62-.06-42.57-.11-72l.22.22H40.86l.24-.24v99.93l-.19-.19,48.14.1h13.37l-13.26.05-48.25.1h-.19V176.21h66.59v.22c0,29.45-.08,54.45-.11,72.1,0,8.8,0,15.76,0,20.54v6.83A1.46,1.46,0,0,1,106.93,276.57Z" transform="translate(-27 -35.89)"/><path id="elsl0q26797c" class="cls-1" d="M118.11,162.83a14.82,14.82,0,0,1-1.56,2.28c-1,1.36-2.48,3.22-4.13,5.23s-3.21,3.8-4.35,5.06a15.26,15.26,0,0,1-1.94,2,15.6,15.6,0,0,1,1.68-2.2l4.24-5.14,4.23-5.14A18.14,18.14,0,0,1,118.11,162.83Z" transform="translate(-27 -35.89)"/><path id="el6yolgm4ddem" class="cls-3" d="M107.27,276.25a81.43,81.43,0,0,0,11.54,14.42" transform="translate(-27 -35.89)"/><path id="el2ij6bfxykbs" class="cls-1" d="M118.81,290.67a12.86,12.86,0,0,1-2-1.83,64,64,0,0,1-8.18-10.23,14.07,14.07,0,0,1-1.34-2.36,18,18,0,0,1,1.62,2.17c1,1.36,2.34,3.22,3.93,5.22s3.11,3.73,4.22,5A19.91,19.91,0,0,1,118.81,290.67Z" transform="translate(-27 -35.89)"/><path id="elpyub7cyl6p" class="cls-3" d="M29.85,290.28l11.53-14.22" transform="translate(-27 -35.89)"/><path id="el9ebb3v83idu" class="cls-1" d="M41.38,276.06a91.37,91.37,0,0,1-5.58,7.26,84.56,84.56,0,0,1-5.95,7c1.74-2.53,3.6-5,5.58-7.32A87.41,87.41,0,0,1,41.38,276.06Z" transform="translate(-27 -35.89)"/><path id="elncwquqamaeb" class="cls-1" d="M29.86,162.83a77.77,77.77,0,0,1,5.6,6.69,79,79,0,0,1,5.22,7,79.33,79.33,0,0,1-5.6-6.69A82.57,82.57,0,0,1,29.86,162.83Z" transform="translate(-27 -35.89)"/><rect id="elv96yrttzfjc" class="cls-1" x="37.18" y="161.04" width="22.14" height="62.87"/></g><g id="freepik--Padlock--inject-5"><path id="el3acjvp520bj" class="cls-6" d="M75.85,74.66a36.14,36.14,0,0,0-19.73,47.08l22.41,54.7,10-4.11-22.4-54.71a25.23,25.23,0,0,1,46.7-19.12h0l10-4.12A36.12,36.12,0,0,0,75.85,74.66Z" transform="translate(-27 -35.89)"/><g id="elru18pn473ac"><g class="cls-7"><path id="elolb9dtqxlh" d="M75.85,74.66a36.14,36.14,0,0,0-19.73,47.08l22.41,54.7,10-4.11-22.4-54.71a25.23,25.23,0,0,1,46.7-19.12h0l10-4.12A36.12,36.12,0,0,0,75.85,74.66Z" transform="translate(-27 -35.89)"/></g></g><g id="el9fk3ruklyd"><rect class="cls-6" x="38.15" y="100.21" width="97.29" height="62.42" rx="5.81"/></g><g id="elx6bgrv4xs8"><g class="cls-8"><path id="elq075vq1ajwr" d="M118.23,156.7a8.13,8.13,0,1,0-6.62,11.13l4.6,11.25,4.11-1.68-4.61-11.25A8.1,8.1,0,0,0,118.23,156.7Z" transform="translate(-27 -35.89)"/></g></g><path id="elgt9zs2vzpft" class="cls-2" d="M83.16,207.18c-.21.09-4.32-9.48-9.18-21.36s-8.65-21.58-8.44-21.67,4.32,9.48,9.18,21.37S83.36,207.1,83.16,207.18Z" transform="translate(-27 -35.89)"/><path id="eljw2ljyu92fn" class="cls-2" d="M108.76,171.85a2.64,2.64,0,0,1-1.08-.14,10.19,10.19,0,0,1-2.75-1.19,11.37,11.37,0,0,1-4-15.58,10.77,10.77,0,0,1,1.29-1.78,9.53,9.53,0,0,1,2.25-2,2.72,2.72,0,0,1,1-.47,26.34,26.34,0,0,0-2.8,2.79,11.28,11.28,0,0,0,1.68,15.86c.3.24.6.46.92.67A26.06,26.06,0,0,0,108.76,171.85Z" transform="translate(-27 -35.89)"/><path id="el5ulazr65ed9" class="cls-6" d="M44.94,181.71l.49-1.42.93,1.18a6.26,6.26,0,0,0,2.88,2l1.42.49-1.18.93a6.33,6.33,0,0,0-2,2.88L47,189.22l-1-1.17a6.28,6.28,0,0,0-2.89-2l-1.41-.49,1.17-.93A6.33,6.33,0,0,0,44.94,181.71Z" transform="translate(-27 -35.89)"/><path id="elwuuinum39e" class="cls-6" d="M92.4,125.92l.28-.82.54.68A3.67,3.67,0,0,0,94.9,127l.82.28-.68.55a3.63,3.63,0,0,0-1.19,1.67l-.28.82L93,129.6a3.54,3.54,0,0,0-1.67-1.18l-.83-.29.69-.54A3.75,3.75,0,0,0,92.4,125.92Z" transform="translate(-27 -35.89)"/><path id="eljoz6e3h5iv" class="cls-6" d="M35.33,132.87l.82-2.39,1.57,2a10.48,10.48,0,0,0,4.84,3.42l2.38.82-2,1.57a10.57,10.57,0,0,0-3.43,4.84l-.82,2.38-1.56-2a10.5,10.5,0,0,0-4.84-3.43l-2.38-.82,2-1.56A10.58,10.58,0,0,0,35.33,132.87Z" transform="translate(-27 -35.89)"/></g><g id="freepik--Device--inject-5"><path id="el3z6l6u4j1xe" class="cls-9" d="M311.06,479.9l-147.61-.09a32.16,32.16,0,0,1-32.14-32.16l.07-370.07a32.16,32.16,0,0,1,32.17-32.15h0l147.61.08a32.16,32.16,0,0,1,32.14,32.16l-.07,370.08a32.16,32.16,0,0,1-32.17,32.15Z" transform="translate(-27 -35.89)"/><path id="elq2l9zwjioph" class="cls-3" d="M311,58.6H282.4a7.1,7.1,0,0,0-6.95,7.25h0V71a7.12,7.12,0,0,1-6.95,7.26H212.72a7.12,7.12,0,0,1-7-7.24V65.81a7.11,7.11,0,0,0-6.95-7.27H163.7A22.53,22.53,0,0,0,141.16,81l-.07,361.22a22.53,22.53,0,0,0,22.51,22.52l147.32.09a22.51,22.51,0,0,0,22.53-22.49v0l.07-361.21A22.52,22.52,0,0,0,311,58.6Z" transform="translate(-27 -35.89)"/><path id="elxzd9aqh31t" class="cls-9" d="M223.63,437.25a2.83,2.83,0,1,1-2.86-2.8A2.83,2.83,0,0,1,223.63,437.25Z" transform="translate(-27 -35.89)"/><path id="el3k16m2gc7c" class="cls-9" d="M239.47,437.12a2.83,2.83,0,1,1-2.86-2.8h0A2.83,2.83,0,0,1,239.47,437.12Z" transform="translate(-27 -35.89)"/><path id="elhxnui1s5j7s" class="cls-9" d="M255.32,437a2.83,2.83,0,1,1-2.86-2.8h0A2.83,2.83,0,0,1,255.32,437Z" transform="translate(-27 -35.89)"/><path id="elgvi4111c1l9" class="cls-9" d="M311.88,95.08c0,.08-3.73.18-8.32.22s-8.31,0-8.31-.09S299,95,303.56,95,311.87,95,311.88,95.08Z" transform="translate(-27 -35.89)"/><path id="el3ppnoat8m4" class="cls-9" d="M311.91,99.33c0,.09-3.72.19-8.31.23s-8.32,0-8.32-.09,3.72-.19,8.32-.23S311.91,99.24,311.91,99.33Z" transform="translate(-27 -35.89)"/><path id="el9yj7ph2xfst" class="cls-9" d="M312,103.58c0,.09-3.73.19-8.32.23s-8.31,0-8.31-.09,3.72-.18,8.31-.22S311.94,103.5,312,103.58Z" transform="translate(-27 -35.89)"/><path id="elmg7ej2cp8ee" class="cls-9" d="M160.65,108.44H162l3.56-.08-.09.09v-2.57c0-.49,0-1,0-1.48a1.33,1.33,0,0,1,1.17-1.08h1.7a1.35,1.35,0,0,1,1.15,1.35v3.76l-.15-.15h4.48l-.15.15v-7a1.17,1.17,0,0,0-.18-.58,3.56,3.56,0,0,0-.46-.49c-.66-.65-1.31-1.3-2-1.93l-1.89-1.86c-.3-.31-.61-.61-.91-.91a2,2,0,0,0-.94-.69,1.23,1.23,0,0,0-1,.2c-.27.23-.56.55-.83.82l-1.61,1.62c-1,1-2.06,2-2.83,2.92a3.22,3.22,0,0,0-.22,1.68v4.19c0-.6,0-1.58,0-2.56v-2.49a1.88,1.88,0,0,1,.25-.93c.83-1,1.82-1.91,2.84-3l1.59-1.63c.29-.28.53-.57.86-.86a1.49,1.49,0,0,1,1.29-.25,2.37,2.37,0,0,1,1.06.76l.92.9,1.9,1.86,2,1.93a3.68,3.68,0,0,1,.5.54,1.5,1.5,0,0,1,.23.74v7.16H169.4v-3.9a1.1,1.1,0,0,0-.92-1.11h-1.63a1.12,1.12,0,0,0-1,.88v4.1H161A1.4,1.4,0,0,1,160.65,108.44Z" transform="translate(-27 -35.89)"/><path id="ela4py8ii59tr" class="cls-9" d="M198.47,194.2c0,3.47-2.6,5.63-6.76,5.63h-3.13v4.28H185V188.56h6.73C195.87,188.56,198.47,190.72,198.47,194.2Zm-3.65,0c0-1.71-1.11-2.71-3.31-2.71h-2.93v5.4h2.93C193.71,196.89,194.82,195.89,194.82,194.2Z" transform="translate(-27 -35.89)"/><path id="el1aas91n6az" class="cls-9" d="M211.24,197.29v6.82H208v-1.49a3.93,3.93,0,0,1-3.64,1.67c-2.8,0-4.47-1.55-4.47-3.62s1.49-3.58,5.13-3.58h2.76c0-1.49-.89-2.35-2.76-2.35a5.74,5.74,0,0,0-3.44,1.11l-1.25-2.42a9.15,9.15,0,0,1,5.16-1.45C209.13,192,211.24,193.67,211.24,197.29Zm-3.46,3.05v-1.22H205.4c-1.62,0-2.13.59-2.13,1.39S204,202,205.22,202A2.55,2.55,0,0,0,207.78,200.34Z" transform="translate(-27 -35.89)"/><path id="el3jf5q20qamc" class="cls-9" d="M213.22,203l1.16-2.49a8.19,8.19,0,0,0,4.15,1.16c1.6,0,2.2-.42,2.2-1.09,0-2-7.22,0-7.22-4.73,0-2.27,2-3.87,5.53-3.87a9.77,9.77,0,0,1,4.6,1.05l-1.15,2.46a6.93,6.93,0,0,0-3.45-.89c-1.55,0-2.22.49-2.22,1.12,0,2,7.22.06,7.22,4.77,0,2.22-2.07,3.8-5.64,3.8A10.19,10.19,0,0,1,213.22,203Z" transform="translate(-27 -35.89)"/><path id="elixwiob11fbn" class="cls-9" d="M225,203l1.15-2.49a8.23,8.23,0,0,0,4.16,1.16c1.6,0,2.2-.42,2.2-1.09,0-2-7.22,0-7.22-4.73,0-2.27,2-3.87,5.53-3.87a9.77,9.77,0,0,1,4.6,1.05l-1.16,2.46a6.92,6.92,0,0,0-3.44-.89c-1.56,0-2.22.49-2.22,1.12,0,2,7.22.06,7.22,4.77,0,2.22-2.07,3.8-5.64,3.8A10.19,10.19,0,0,1,225,203Z" transform="translate(-27 -35.89)"/><path id="elcb4da24ei1c" class="cls-9" d="M256.94,192.16l-4.33,12h-3.33l-2.69-7.42-2.78,7.42h-3.33l-4.31-12h3.27l2.82,8.09,2.93-8.09h2.93l2.85,8.09,2.91-8.09Z" transform="translate(-27 -35.89)"/><path id="el49wa47tfmri" class="cls-9" d="M257.35,198.14c0-3.6,2.77-6.16,6.57-6.16s6.56,2.56,6.56,6.16-2.76,6.15-6.56,6.15S257.35,201.74,257.35,198.14Zm9.62,0a3.06,3.06,0,1,0-3.05,3.31,3,3,0,0,0,3.09-2.9,2.81,2.81,0,0,0,0-.41Z" transform="translate(-27 -35.89)"/><path id="elkaixeetf2ml" class="cls-9" d="M280.21,192v3.2h-.78c-1.91,0-3.18,1-3.18,3.33v5.64h-3.46v-12h3.31v1.58A4.81,4.81,0,0,1,280.21,192Z" transform="translate(-27 -35.89)"/><path id="eli09rlvhet8e" class="cls-9" d="M294.34,187.63v16.48H291v-1.37a4.63,4.63,0,0,1-3.73,1.55,6.16,6.16,0,0,1,0-12.31,4.54,4.54,0,0,1,3.57,1.45v-5.8Zm-3.4,10.51a3.06,3.06,0,1,0-3,3.31,3,3,0,0,0,3-3C291,198.36,291,198.25,290.94,198.14Z" transform="translate(-27 -35.89)"/><path id="elj933f7ty8p" class="cls-1" d="M321,217c0,.14-37,.26-82.69.26s-82.71-.12-82.71-.26,37-.26,82.71-.26S321,216.83,321,217Z" transform="translate(-27 -35.89)"/><path id="elak4vwp61ub" class="cls-1" d="M317.15,369.23c0,.15-37,.26-82.7.26s-82.7-.11-82.7-.26,37-.26,82.7-.26S317.15,369.09,317.15,369.23Z" transform="translate(-27 -35.89)"/><path id="elepe2k56jbxl" class="cls-1" d="M279.74,380.67c0,.14-20.57.26-45.94.26s-45.94-.12-45.94-.26,20.56-.26,45.94-.26S279.74,380.52,279.74,380.67Z" transform="translate(-27 -35.89)"/><path id="elihxsqvtcssd" class="cls-6" d="M170.5,261.3l3.13,1.69-1.41,2.36-3.16-1.87.06,3.48h-2.7v-3.51l-3.17,1.9L161.9,263l3.1-1.7-3.14-1.73,1.38-2.35,3.17,1.89v-3.5h2.7l-.06,3.5,3.16-1.89,1.41,2.35Z" transform="translate(-27 -35.89)"/><path id="elbovickna8wv" class="cls-6" d="M206.42,261.3l3.13,1.69-1.41,2.36L205,263.48V267h-2.71v-3.51l-3.16,1.9L197.82,263l3.18-1.7-3.13-1.73,1.38-2.35,3.16,1.89v-3.5H205l-.06,3.5,3.16-1.89,1.41,2.35Z" transform="translate(-27 -35.89)"/><path id="elbmn1u8pzl24" class="cls-6" d="M241.38,261.3l3.13,1.69-1.41,2.36-3.16-1.87L240,267h-2.7v-3.51l-3.17,1.9L232.78,263l3.14-1.69-3.14-1.73,1.38-2.35,3.17,1.89v-3.5H240l-.06,3.5,3.16-1.89,1.41,2.35Z" transform="translate(-27 -35.89)"/><path id="ell8qjcsyo4vl" class="cls-6" d="M275.25,261.3l3.13,1.69L277,265.35l-3.16-1.87.06,3.48h-2.7v-3.51l-3.16,1.9L266.65,263l3.14-1.69-3.14-1.73,1.38-2.35,3.16,1.89v-3.5h2.7l-.06,3.5,3.16-1.89,1.41,2.35Z" transform="translate(-27 -35.89)"/><path id="elubpwm0rbc38" class="cls-6" d="M308.85,261.3,312,263l-1.41,2.36-3.16-1.87.05,3.48h-2.7v-3.51l-3.16,1.9L300.26,263l3.13-1.69-3.13-1.73,1.38-2.35,3.16,1.89v-3.5h2.7l-.05,3.5,3.16-1.89,1.41,2.35Z" transform="translate(-27 -35.89)"/><path id="elzk3n3v9i6b" class="cls-9" d="M176.07,283.08H160.92a7.09,7.09,0,0,1-7.07-7.07v-26.9a7.07,7.07,0,0,1,7.07-7.06h15.15a7.07,7.07,0,0,1,7.07,7.06V276A7.08,7.08,0,0,1,176.07,283.08Zm-15.15-40.53a6.58,6.58,0,0,0-6.57,6.56V276a6.58,6.58,0,0,0,6.57,6.57h15.15a6.57,6.57,0,0,0,6.57-6.57h0V249.1a6.58,6.58,0,0,0-6.57-6.56Z" transform="translate(-27 -35.89)"/><path id="elmy6lk8g7zn" class="cls-9" d="M211.26,283.08H196.11A7.08,7.08,0,0,1,189,276V249.1a7.07,7.07,0,0,1,7.07-7.06h15.15a7.07,7.07,0,0,1,7.07,7.06V276A7.08,7.08,0,0,1,211.26,283.08Zm-15.15-40.53a6.58,6.58,0,0,0-6.57,6.56V276a6.58,6.58,0,0,0,6.57,6.57h15.15a6.57,6.57,0,0,0,6.57-6.57h0V249.1a6.58,6.58,0,0,0-6.57-6.56Z" transform="translate(-27 -35.89)"/><path id="el64zjiiftx5m" class="cls-9" d="M245.49,283.08H230.33a7.09,7.09,0,0,1-7.07-7.07v-26.9a7.07,7.07,0,0,1,7.07-7.06h15.16a7.07,7.07,0,0,1,7.06,7.06V276A7.08,7.08,0,0,1,245.49,283.08Zm-15.16-40.53a6.58,6.58,0,0,0-6.57,6.56V276a6.58,6.58,0,0,0,6.57,6.57h15.16a6.58,6.58,0,0,0,6.56-6.57V249.1a6.56,6.56,0,0,0-6.56-6.56Z" transform="translate(-27 -35.89)"/><path id="elrjgtbbg1ym9" class="cls-9" d="M280.1,283.08H264.94a7.09,7.09,0,0,1-7.07-7.07v-26.9a7.07,7.07,0,0,1,7.07-7.06H280.1a7.07,7.07,0,0,1,7.06,7.06V276A7.08,7.08,0,0,1,280.1,283.08Zm-15.16-40.53a6.58,6.58,0,0,0-6.57,6.56V276a6.58,6.58,0,0,0,6.57,6.57H280.1a6.58,6.58,0,0,0,6.56-6.57V249.1a6.56,6.56,0,0,0-6.56-6.56Z" transform="translate(-27 -35.89)"/><path id="elbm60lc8lfkc" class="cls-9" d="M313.7,283.08H298.55a7.09,7.09,0,0,1-7.07-7.07v-26.9a7.07,7.07,0,0,1,7.07-7.06H313.7a7.07,7.07,0,0,1,7.07,7.06V276A7.08,7.08,0,0,1,313.7,283.08Zm-15.15-40.53a6.58,6.58,0,0,0-6.57,6.56V276a6.57,6.57,0,0,0,6.57,6.57H313.7a6.58,6.58,0,0,0,6.57-6.57V249.1a6.58,6.58,0,0,0-6.57-6.56Z" transform="translate(-27 -35.89)"/><rect id="el4x8us4c3p3h" class="cls-6" x="127.09" y="279.67" width="169.79" height="29.74" rx="11.29"/><path id="eldbfv3k9lif8" class="cls-3" d="M217.55,324.45h4.57c3.29,0,5.55,2,5.55,5s-2.26,5-5.55,5h-4.57ZM222,332.6a3.12,3.12,0,1,0,0-6.24h-2.14v6.24Z" transform="translate(-27 -35.89)"/><path id="elf6a8qj8s6wh" class="cls-3" d="M228.69,330.65a4.26,4.26,0,1,1,4.51,4H233a4,4,0,0,1-4.25-3.73A2.44,2.44,0,0,1,228.69,330.65Zm6.23,0a2,2,0,1,0-2,2A2,2,0,0,0,234.92,330.65Z" transform="translate(-27 -35.89)"/><path id="elt7ay47sgnj" class="cls-3" d="M246.59,330.09v4.42h-2.24v-4.08c0-1.25-.58-1.82-1.57-1.82a1.84,1.84,0,0,0-1.85,2.08v3.82h-2.24v-7.73h2.14v.91a3.39,3.39,0,0,1,2.56-1C245.21,326.67,246.59,327.73,246.59,330.09Z" transform="translate(-27 -35.89)"/><path id="elbwm13otglxl" class="cls-3" d="M256.24,331.28h-5.85a2.07,2.07,0,0,0,2.21,1.55,2.6,2.6,0,0,0,1.94-.75l1.2,1.3a4,4,0,0,1-3.19,1.25c-2.68,0-4.42-1.68-4.42-4a3.92,3.92,0,0,1,3.85-4h.28a3.82,3.82,0,0,1,4,3.63,2.29,2.29,0,0,1,0,.37A4.56,4.56,0,0,1,256.24,331.28ZM250.36,330h3.81a1.93,1.93,0,0,0-3.81,0Z" transform="translate(-27 -35.89)"/><circle id="elobag2vx9ct" class="cls-6" cx="237.31" cy="143.52" r="30.05" transform="translate(30.63 318.89) rotate(-80.78)"/><path id="elwjpa4ustdp" class="cls-3" d="M232,138.05h-.5v-2.8a5.86,5.86,0,1,1,11.72,0v2.28h-.5v-2.28a5.36,5.36,0,1,0-10.72,0Z" transform="translate(-27 -35.89)"/><path id="eloi7kqc5vlf" class="cls-3" d="M244.76,157.65h-14.9a2.49,2.49,0,0,1-2.47-2.47V140.27a2.49,2.49,0,0,1,2.47-2.47h14.9a2.49,2.49,0,0,1,2.47,2.47v14.91A2.49,2.49,0,0,1,244.76,157.65Zm-14.9-19.35a2,2,0,0,0-2,2v14.91a2,2,0,0,0,2,2h14.9a2,2,0,0,0,2-2V140.27a2,2,0,0,0-2-2Z" transform="translate(-27 -35.89)"/><path id="elnfn1k5kc8xd" class="cls-3" d="M237.38,148.21a2.34,2.34,0,1,1,2.34-2.34h0A2.34,2.34,0,0,1,237.38,148.21Zm0-4.17a1.84,1.84,0,1,0,1.84,1.84h0a1.84,1.84,0,0,0-1.81-1.87h0Z" transform="translate(-27 -35.89)"/><rect id="el5eszl71c9bu" class="cls-3" x="210.06" y="111.97" width="0.5" height="4.22"/></g><g id="freepik--Character--inject-5"><polygon id="elyx2nztl74fk" class="cls-10" points="419.31 422.88 400.44 379.35 378.79 393.25 401.75 433.04 413.26 427.88 419.31 422.88"/><path id="el0v1yd0ub3jp" class="cls-6" d="M445.89,456.34l.62,1.24s25.15-2.15,27.38,1.71L432.25,480l-6.33-14.14C433.54,465.66,440.18,462.76,445.89,456.34Z" transform="translate(-27 -35.89)"/><g id="el0hsk7gv60nem"><g class="cls-11"><path id="elpprbqy3nzdq" class="cls-3" d="M432.34,468.21a1.9,1.9,0,0,0-.21,2.52,1.82,1.82,0,0,0,2.5.23,2,2,0,0,0,.21-2.67,1.91,1.91,0,0,0-2.63,0" transform="translate(-27 -35.89)"/></g></g><g id="ele3eogevazjd"><g class="cls-11"><path id="elaw7b7vz286i" class="cls-3" d="M432.25,480l-1.52-3.4L471.19,458s2.26-.11,2.7,1.3Z" transform="translate(-27 -35.89)"/></g></g><path id="elevizg1yhtu6" class="cls-9" d="M446.72,457.62c.09.21-.88.8-1.55,2s-.79,2.27-1,2.28-.51-1.31.33-2.69S446.67,457.41,446.72,457.62Z" transform="translate(-27 -35.89)"/><path id="elolj6x0f1ncf" class="cls-9" d="M452,457.25c.15.18-.56,1-.82,2.16s0,2.22-.22,2.31-.91-1-.55-2.49S451.88,457.06,452,457.25Z" transform="translate(-27 -35.89)"/><path id="elug991yw35ts" class="cls-9" d="M457.07,461.24c-.17.14-1-.74-1-2.11s.7-2.29.87-2.16-.12,1-.08,2.14S457.26,461.12,457.07,461.24Z" transform="translate(-27 -35.89)"/><polygon id="el1fmtddpcf6d" class="cls-10" points="383.82 430.44 384.54 382.99 359.09 386.75 363.63 432.47 376.25 432.5 383.82 430.44"/><path id="elhfrt63jma3g" class="cls-6" d="M411.43,463.94l.07,1.38s23.8,8.4,24.24,12.83l-46.48,1.74.05-15.49C396.34,467.34,403.59,467.43,411.43,463.94Z" transform="translate(-27 -35.89)"/><g id="eldq1v6rr20va"><g class="cls-11"><path id="eldjem5ivsffw" class="cls-3" d="M394.2,469.17a1.92,1.92,0,0,0-1.23,2.22,1.83,1.83,0,0,0,2.19,1.24,2,2,0,0,0,1.29-2.36,1.89,1.89,0,0,0-2.42-1" transform="translate(-27 -35.89)"/></g></g><g id="elx2vsqby1xa"><g class="cls-11"><path id="eltpodn9rt5p" class="cls-3" d="M389.26,479.89v-3.72l44.54-.31s2.11.82,1.93,2.29Z" transform="translate(-27 -35.89)"/></g></g><path id="elf9pedwxgysm" class="cls-9" d="M411.66,465.44c0,.23-1.13.38-2.22,1.15s-1.64,1.74-1.86,1.66.08-1.4,1.41-2.31S411.7,465.23,411.66,465.44Z" transform="translate(-27 -35.89)"/><path id="elcl1om0iqu8k" class="cls-9" d="M416.61,467.28c.06.21-.9.64-1.64,1.63s-.92,2-1.15,2-.41-1.28.52-2.5S416.6,467.06,416.61,467.28Z" transform="translate(-27 -35.89)"/><path id="el6mcjmdvcte4" class="cls-9" d="M419.6,473c-.2.05-.56-1.07,0-2.33s1.58-1.8,1.69-1.62-.53.88-1,1.92S419.83,473,419.6,473Z" transform="translate(-27 -35.89)"/><path id="elnfi2c0l8o0m" class="cls-9" d="M392.51,272.89l-.95-37.36-36.36,1.91-1.2,4.42a202.62,202.62,0,0,0-4.76,20.8c-2.44,15.65-2.15,29.89,4,46.62S369,357.82,369,357.82l36.07,99.63,42-13.81Z" transform="translate(-27 -35.89)"/><path id="ellpkmv2tif3f" class="cls-9" d="M414.5,234.32l3.17,10.35c4.66,3,12.19,17.7,12.88,23.72s2,26.63.63,50.79c-1.17,19.87-11,136.17-11,136.17l-39.74,2.1,4.14-188.06,1.75-33.58Z" transform="translate(-27 -35.89)"/><path id="elbhzeezug3vg" class="cls-12" d="M346.4,266.1a6.08,6.08,0,0,0,1.38.41,22.93,22.93,0,0,0,3.87.52,25.25,25.25,0,0,0,22.23-11,21.89,21.89,0,0,0,1.93-3.4,6.18,6.18,0,0,0,.51-1.34c-.1,0-.85,1.87-2.76,4.52a26.08,26.08,0,0,1-21.89,10.85A51.73,51.73,0,0,1,346.4,266.1Z" transform="translate(-27 -35.89)"/><path id="el9yc7i6fgy7d" class="cls-12" d="M413,246.12a3,3,0,0,0,.23.87,19.87,19.87,0,0,0,.92,2.24,29.05,29.05,0,0,0,10.48,11.9,19,19,0,0,0,2.11,1.19,3.16,3.16,0,0,0,.83.34c.05-.09-1.06-.69-2.72-1.86a33.11,33.11,0,0,1-10.35-11.74C413.53,247.27,413.07,246.09,413,246.12Z" transform="translate(-27 -35.89)"/><path id="el8vq0dmzukz3" class="cls-12" d="M394.27,277.88s.1.25.27.77l.73,2.29c.64,2,1.57,5,2.76,8.81,2.38,7.68,5.82,18.76,10.07,32.45,8.62,27.36,19.57,65.47,34.25,106.72q2.52,7.41,5,14.63l.08.26-.25.08-42,13.79-.23.08-.08-.23-24.15-67-6.87-19.19c-.79-2.22-1.39-3.94-1.81-5.11q-.3-.86-.45-1.32l-.15-.45s.07.14.18.44.28.74.5,1.3l1.88,5.08c1.63,4.47,4,11,7,19.15l24.32,66.9-.3-.15,42-13.82-.17.33q-2.46-7.21-5-14.63c-14.68-41.26-25.57-79.38-34.1-106.77-4.18-13.72-7.56-24.82-9.91-32.5-1.15-3.84-2-6.81-2.66-8.85-.3-1-.53-1.77-.68-2.3S394.27,277.88,394.27,277.88Z" transform="translate(-27 -35.89)"/><path id="elr9jnp40i70a" class="cls-12" d="M430,169.45s-1.9-10.63-7.35-15.72-28.16-10.85-28.16-10.85.27,7.89-4.81,10c-5.38,2.25-10.76,1.49-15-3a21.75,21.75,0,0,1-5.17-9.89s-26.92,3.93-30.75,11.23-7.84,35-7.84,35l24.39,3.85-.79,47.38,64.1-3.37L415,189.87l17.58,1.57Z" transform="translate(-27 -35.89)"/><path id="ele098t50fwgc" class="cls-9" d="M360.17,191.4a4.7,4.7,0,0,0,0-1.06c0-.69-.06-1.68-.13-2.91-.13-2.44-.34-5.82-.62-9.55s-.55-7.11-.78-9.55c-.12-1.22-.22-2.21-.3-2.89a4.14,4.14,0,0,0-.19-1.05,3.76,3.76,0,0,0,0,1.06c0,.69.06,1.68.13,2.9.13,2.45.34,5.83.62,9.56s.55,7.11.78,9.55c.11,1.22.22,2.21.3,2.89A3.42,3.42,0,0,0,360.17,191.4Z" transform="translate(-27 -35.89)"/><path id="elc3fww0562wh" class="cls-9" d="M419.86,168.77c-.15,0-1.4,4.83-2.8,10.87a111.71,111.71,0,0,0-2.26,11,109.66,109.66,0,0,0,2.8-10.87A111.71,111.71,0,0,0,419.86,168.77Z" transform="translate(-27 -35.89)"/><path id="elku916tfcx4k" class="cls-9" d="M341.34,149.42c0,.1,1.16.25,3,.83a20.9,20.9,0,0,1,11.35,8.86c1,1.61,1.42,2.71,1.52,2.67a2.73,2.73,0,0,0-.23-.8,14.33,14.33,0,0,0-1-2.07,19.22,19.22,0,0,0-11.58-9,13.11,13.11,0,0,0-2.23-.43A2.38,2.38,0,0,0,341.34,149.42Z" transform="translate(-27 -35.89)"/><path id="elyme6j2wx95b" class="cls-9" d="M423.16,155.87a20.77,20.77,0,0,0-1.41,6.88,11.36,11.36,0,0,0,.95-3.38A11.23,11.23,0,0,0,423.16,155.87Z" transform="translate(-27 -35.89)"/><path id="elm6p7hdgnmym" class="cls-10" d="M335.24,186.93s9.16,36.31,10.15,39.41,2.77,11.48,11.61,12.76c11.94,1.74,58.24-2.35,58.24-2.35l-9.33-10.62-41.19-9.24-7-26.4Z" transform="translate(-27 -35.89)"/><path id="elccx6egbrzjj" class="cls-13" d="M406.35,219.9a2.26,2.26,0,0,0-.3.87,11.48,11.48,0,0,0-.34,2.47,14.09,14.09,0,0,0,2.08,7.9,16.23,16.23,0,0,0,2.85,3.54,8.9,8.9,0,0,0,3.2,1.9,8.65,8.65,0,0,0,2.47.42,2.33,2.33,0,0,0,.91-.08,18,18,0,0,1-3.24-.71,8.93,8.93,0,0,1-3-1.91,17.45,17.45,0,0,1-2.72-3.45,14.88,14.88,0,0,1-2.16-7.61C406.09,221.18,406.45,219.92,406.35,219.9Z" transform="translate(-27 -35.89)"/><path id="ela6od30d9byc" class="cls-6" d="M359.88,182.57a5.07,5.07,0,0,1-1.1-.11l-3-.43c-2.5-.36-6-.77-9.79-1.27a97.38,97.38,0,0,1-9.75-1.69c-1.23-.3-2.22-.57-2.89-.79a5,5,0,0,1-1-.38c0-.09,1.54.31,4,.8s5.92,1,9.74,1.53,7.29,1,9.78,1.42c1.25.23,2.25.44,2.94.61A4,4,0,0,1,359.88,182.57Z" transform="translate(-27 -35.89)"/><path id="elq194jg77wo" class="cls-6" d="M358,170.48a3.71,3.71,0,0,1-.94.05c-.61,0-1.49,0-2.58-.08-2.17-.11-5.17-.35-8.47-.76s-6.27-.92-8.4-1.35c-1.07-.22-1.93-.41-2.52-.56a2.86,2.86,0,0,1-.9-.28,24.18,24.18,0,0,1,3.49.47c2.14.33,5.11.78,8.39,1.19s6.27.71,8.44.91A24.08,24.08,0,0,1,358,170.48Z" transform="translate(-27 -35.89)"/><path id="eljqqpeqfuvk" class="cls-6" d="M355.91,161.28a12.35,12.35,0,0,1-2.85,0,58.41,58.41,0,0,1-13.49-2.53,13.42,13.42,0,0,1-2.67-1,17.42,17.42,0,0,1,2.77.65c1.69.44,4.05,1,6.67,1.5s5,.81,6.76,1A17.74,17.74,0,0,1,355.91,161.28Z" transform="translate(-27 -35.89)"/><path id="el5w9chkvtvmw" class="cls-6" d="M373,148.17a20,20,0,0,1-3.22,1c-2,.52-4.79,1.16-7.88,1.78s-5.92,1.09-8,1.39a19.71,19.71,0,0,1-3.34.35,22.7,22.7,0,0,1,3.27-.72l7.92-1.54,7.91-1.63A21.14,21.14,0,0,1,373,148.17Z" transform="translate(-27 -35.89)"/><path id="elvysj01q6ny" class="cls-6" d="M422.69,159a5.71,5.71,0,0,1-1.14-.4l-3.06-1.26c-2.57-1.06-6.13-2.53-10.09-4.08s-7.57-2.88-10.19-3.84l-3.09-1.14a5.08,5.08,0,0,1-1.12-.49,5.36,5.36,0,0,1,1.18.29c.76.21,1.83.55,3.16,1,2.65.87,6.29,2.15,10.26,3.7s7.51,3.07,10,4.23c1.27.58,2.29,1.06,3,1.41A5.7,5.7,0,0,1,422.69,159Z" transform="translate(-27 -35.89)"/><path id="el5faw9i3eix2" class="cls-6" d="M419.86,168.32a2.56,2.56,0,0,1-.62-.07l-1.78-.28-6.5-1.14c-5.49-1-13.08-2.29-21.52-3.31-4.22-.49-8.25-.84-11.93-1.06s-7-.27-9.77-.22c-1.39,0-2.65.06-3.76.09s-2.05.07-2.83.13l-1.79.09a3.32,3.32,0,0,1-.63,0,2.59,2.59,0,0,1,.62-.1l1.78-.19c.78-.09,1.73-.17,2.84-.22s2.37-.16,3.76-.17c2.79-.09,6.12-.05,9.81.11s7.73.53,12,1c8.45,1,16,2.41,21.52,3.47,2.73.53,5,1,6.47,1.3l1.76.39A2.7,2.7,0,0,1,419.86,168.32Z" transform="translate(-27 -35.89)"/><path id="el8sueqjh4tb3" class="cls-6" d="M394,184.66a7.84,7.84,0,0,1-1.37,0c-.89,0-2.16-.16-3.74-.32-3.14-.33-7.48-.9-12.23-1.77s-9-1.86-12.07-2.66c-1.53-.41-2.76-.75-3.6-1a7.4,7.4,0,0,1-1.3-.45,6.18,6.18,0,0,1,1.35.25l3.64.85c3.08.71,7.34,1.64,12.08,2.51s9.05,1.49,12.18,1.91l3.71.5A6.09,6.09,0,0,1,394,184.66Z" transform="translate(-27 -35.89)"/><path id="elmcna2w3067" class="cls-6" d="M415.75,185a101.55,101.55,0,0,1-10.17.36,101.26,101.26,0,0,1-10.16-.17,95.73,95.73,0,0,1,10.16-.36A93.25,93.25,0,0,1,415.75,185Z" transform="translate(-27 -35.89)"/><path id="el8310iut58ck" class="cls-6" d="M387.18,199.36a4.14,4.14,0,0,1-1.11-.05c-.7-.06-1.73-.19-3-.37-2.52-.36-6-1-9.77-1.85s-7.16-1.88-9.57-2.67c-1.21-.4-2.18-.74-2.85-1a5.24,5.24,0,0,1-1-.44,4,4,0,0,1,1.08.24l2.89.84c2.43.7,5.81,1.62,9.58,2.51s7.21,1.55,9.71,2l3,.54A4.15,4.15,0,0,1,387.18,199.36Z" transform="translate(-27 -35.89)"/><path id="el8p3nznlh6eg" class="cls-6" d="M410.73,200.4a15.75,15.75,0,0,1-3.22,0c-2-.07-4.73-.27-7.74-.66s-5.72-.9-7.66-1.33a15.84,15.84,0,0,1-3.1-.86,21.44,21.44,0,0,1,3.18.49c1.95.34,4.65.78,7.65,1.17s5.72.65,7.69.82A23.06,23.06,0,0,1,410.73,200.4Z" transform="translate(-27 -35.89)"/><path id="elo9khnhbe1u" class="cls-6" d="M405.82,213.46a1.23,1.23,0,0,1-.41.17c-.27.08-.67.22-1.2.36a38.21,38.21,0,0,1-4.5.93,58.5,58.5,0,0,1-15.13.13,117.6,117.6,0,0,1-14.89-2.79c-1.88-.46-3.39-.86-4.44-1.15a9.09,9.09,0,0,1-1.61-.5,11.8,11.8,0,0,1,1.66.3l4.48,1a146.49,146.49,0,0,0,14.85,2.63,63.78,63.78,0,0,0,15,0c1.91-.24,3.45-.53,4.51-.76A11.86,11.86,0,0,1,405.82,213.46Z" transform="translate(-27 -35.89)"/><path id="elf4p1lcmhura" class="cls-6" d="M428.93,175.93a31.91,31.91,0,0,1-5.07.41,19.79,19.79,0,0,1-5.1-.12,31.91,31.91,0,0,1,5.07-.41A19.79,19.79,0,0,1,428.93,175.93Z" transform="translate(-27 -35.89)"/><path id="el0tztea5ui7xf" class="cls-6" d="M427.58,163.75a14.32,14.32,0,0,1-5.53-.36A14.72,14.72,0,0,1,427.58,163.75Z" transform="translate(-27 -35.89)"/><path id="el25jd0jlnt79" class="cls-9" d="M385.24,200.23c-.05-.09,1.05-.64,2.55-1.88a17.84,17.84,0,0,0,6.38-13.23c.05-1.94-.21-3.14-.11-3.16a2.64,2.64,0,0,1,.24.83,6.72,6.72,0,0,1,.16,1c.05.44.08.89.09,1.33a16.27,16.27,0,0,1-.31,3.48,17.4,17.4,0,0,1-3.69,7.64,16,16,0,0,1-2.53,2.41,10.25,10.25,0,0,1-1.1.76,7.58,7.58,0,0,1-.88.49A2.66,2.66,0,0,1,385.24,200.23Z" transform="translate(-27 -35.89)"/><g id="el3dq0jfx19vh"><g class="cls-7"><path id="elu74ju27dh4" d="M393.81,190.49l-3.89,5.78a18.45,18.45,0,0,1-10.42,6.49,10.89,10.89,0,0,0,14.31-12.27Z" transform="translate(-27 -35.89)"/></g></g><path id="elvu33auhjzs" class="cls-9" d="M405.34,130.24a19.32,19.32,0,0,0,10.73-2.18c-4.84-3-7.89-8.26-9.37-13.75s-3.38-14.85-3.43-20.53l-8.86,39.37a23.85,23.85,0,0,0,14-1.09A3.86,3.86,0,0,1,405.34,130.24Z" transform="translate(-27 -35.89)"/><path id="elxmhgklbhb7g" class="cls-9" d="M380.06,135a27.7,27.7,0,0,1-2.14-14.07l-17.86-6.77a31.32,31.32,0,0,1-5.7,13.42c-1.09,1.48-2.39,3.2-1.88,5a3.77,3.77,0,0,0,2.77,2.37,11,11,0,0,0,3.8,0l-2.28,2.49A136.93,136.93,0,0,1,380.06,135Z" transform="translate(-27 -35.89)"/><path id="el51b020kh19f" class="cls-9" d="M381.57,76.16c-5.63-.58-10.39,1.89-14.88,5.33a28,28,0,0,0-9.42,13.82,27.75,27.75,0,0,0,.12,17.58,22.15,22.15,0,0,0,11.77,12.82c7.48,3.2,16.67,1.31,22.83-4s9.33-13.67,9.11-21.82a26.87,26.87,0,0,0-5.29-15.68,20.51,20.51,0,0,0-14.24-8" transform="translate(-27 -35.89)"/><path id="ell8lzbot7jlk" class="cls-9" d="M367,96.14c.67-2.18.2-4.54.37-6.82.39-5,4.14-9.27,8.64-11.51,4.2-2.09,9.49-2,14.79-.7a19.76,19.76,0,0,1,9.68,5.44,15.62,15.62,0,0,1,3.79,13.84l-25.69-2A28.33,28.33,0,0,1,371.2,100a5.31,5.31,0,0,1-2.62.6A2.39,2.39,0,0,1,366.46,99C366.16,98.08,366.67,97.09,367,96.14Z" transform="translate(-27 -35.89)"/><path id="elio11ymwf31l" class="cls-10" d="M391.78,84.1l-21.91,6.16a4.15,4.15,0,0,0-3.61,4.31l3.42,48.07a15,15,0,0,0,3.72,8.86l2.3,2.59c5.24,5.92,15,4.65,18.22-2.56a5.27,5.27,0,0,0,.42-1.29,8.07,8.07,0,0,0,.14-1.1,34.36,34.36,0,0,0-.09-7.31c-.06-4.29-.11-6.05-.11-6s9-1.75,10.58-13.61c.78-5.91.23-15.53-.48-23.4C403.75,91.74,398.82,83.16,391.78,84.1Z" transform="translate(-27 -35.89)"/><path id="el1k71k8ffije" class="cls-9" d="M400.17,106.38a1.53,1.53,0,0,1-1.43,1.57,1.45,1.45,0,0,1-1.59-1.28v0a1.51,1.51,0,0,1,1.41-1.57,1.46,1.46,0,0,1,1.61,1.28Z" transform="translate(-27 -35.89)"/><path id="elj0c8bpvxua" class="cls-9" d="M402.43,103.88c-.19.2-1.36-.62-3-.57s-2.8.9-3,.7.09-.45.6-.84a4.08,4.08,0,0,1,2.38-.8,4,4,0,0,1,2.39.7C402.34,103.44,402.52,103.79,402.43,103.88Z" transform="translate(-27 -35.89)"/><path id="elp85yqoeccqg" class="cls-9" d="M384.73,107.19a1.52,1.52,0,0,1-1.42,1.57,1.45,1.45,0,0,1-1.6-1.29v0a1.52,1.52,0,0,1,1.42-1.57,1.45,1.45,0,0,1,1.6,1.29Z" transform="translate(-27 -35.89)"/><path id="elowysstxekcm" class="cls-9" d="M386.4,104.61c-.18.2-1.35-.61-3-.57s-2.8.9-3,.7.09-.44.61-.84a4.08,4.08,0,0,1,2.38-.8,4,4,0,0,1,2.38.7C386.31,104.17,386.49,104.52,386.4,104.61Z" transform="translate(-27 -35.89)"/><path id="el6ifn338zdmg" class="cls-9" d="M392.64,116.55a10.79,10.79,0,0,1,2.64-.55c.42,0,.81-.15.87-.43a2.21,2.21,0,0,0-.31-1.23l-1.32-3.14c-1.83-4.47-3.16-8.15-3-8.22s1.81,3.49,3.64,8l1.26,3.16a2.38,2.38,0,0,1,.26,1.63,1,1,0,0,1-.67.63,2.76,2.76,0,0,1-.7.11A10.37,10.37,0,0,1,392.64,116.55Z" transform="translate(-27 -35.89)"/><path id="elfbuouisooa" class="cls-13" d="M394.28,135.82a30.15,30.15,0,0,1-15.93-3.8s4.19,8.07,16,6.65Z" transform="translate(-27 -35.89)"/><path id="el7jsozif4wb4" class="cls-13" d="M392.06,120.5a2.92,2.92,0,0,0-2.66-1,2.66,2.66,0,0,0-1.83,1,1.73,1.73,0,0,0-.08,2,2,2,0,0,0,2.15.48,6,6,0,0,0,2.06-1.3,1.91,1.91,0,0,0,.45-.49.56.56,0,0,0,0-.61" transform="translate(-27 -35.89)"/><path id="el0juja85aizuj" class="cls-9" d="M387.88,117.8c.26,0,.31,1.75,1.86,3s3.43,1,3.45,1.22-.41.35-1.21.39a4.44,4.44,0,0,1-2.88-.91,3.8,3.8,0,0,1-1.44-2.49C387.57,118.24,387.75,117.8,387.88,117.8Z" transform="translate(-27 -35.89)"/><path id="el28vyvq886lu" class="cls-9" d="M386.55,99.67c-.15.45-1.79.28-3.69.57s-3.44.84-3.71.45c-.12-.19.14-.61.75-1.06a6.35,6.35,0,0,1,2.73-1,6.24,6.24,0,0,1,2.91.27C386.25,99.12,386.61,99.46,386.55,99.67Z" transform="translate(-27 -35.89)"/><path id="eln7rd6pm74rl" class="cls-9" d="M401.76,96.76c-.27.38-1.41,0-2.76,0s-2.49.32-2.76-.06c-.12-.19.05-.56.54-.93a4,4,0,0,1,4.45,0C401.72,96.2,401.89,96.58,401.76,96.76Z" transform="translate(-27 -35.89)"/><path id="el5hvi5f68q57" class="cls-9" d="M362.67,93c1.86-6.92,11.31-16.79,18.47-16.62l11.71,6.32a11,11,0,0,1-7.08,8.75c-2,.71-4.4,1-5.52,2.77s-.31,4.37-1.37,6.25c-1.46,2.6-5.78,2.68-6.84,5.47-.47,1.21-.13,2.63-.62,3.84-.64,1.61-4.55,3.8-6.23,3.35s-1.81-3.27-2.42-4.72a7.8,7.8,0,0,1-.48-5.23C362.86,99.8,361.78,96.28,362.67,93Z" transform="translate(-27 -35.89)"/><path id="el9o9q8cf97kf" class="cls-10" d="M370.14,114.28c0-.88-1.1-2.93-2-3-2.33-.3-6.5,0-6.39,5.89.17,8.06,8.22,6.24,8.23,6S370.22,117.32,370.14,114.28Z" transform="translate(-27 -35.89)"/><path id="elima2cionpv" class="cls-13" d="M367.48,120.13a3.42,3.42,0,0,1-.37.22,1.36,1.36,0,0,1-1.05,0c-.86-.29-1.6-1.63-1.67-3.08a4.44,4.44,0,0,1,.35-2,1.6,1.6,0,0,1,1-1.1.71.71,0,0,1,.84.37c.11.22.07.38.11.4s.17-.14.1-.47a.94.94,0,0,0-.33-.5,1,1,0,0,0-.78-.19,2,2,0,0,0-1.44,1.28,4.72,4.72,0,0,0-.44,2.25c.08,1.63.94,3.13,2.11,3.44a1.5,1.5,0,0,0,1.28-.24C367.47,120.33,367.51,120.15,367.48,120.13Z" transform="translate(-27 -35.89)"/><path id="elbxz8mm3q4iq" class="cls-9" d="M360.81,91h0c-.14-2.52-3.38-4-5.87-4.37a10.46,10.46,0,0,0-7.15,1.86c-1.24.79-2.48,1.88-2.67,3.34s1.31,3.09,2.65,2.48a4.78,4.78,0,0,0,3.64,8.84,4.88,4.88,0,0,0,1.51-1,10.68,10.68,0,0,1-3.81,6A12,12,0,0,0,360.81,91Z" transform="translate(-27 -35.89)"/><path id="elifu77tx88ep" class="cls-9" d="M346.78,125.52c0-.38,1.05-.56,2.48-1a15.11,15.11,0,0,0,5.05-2.5,14.92,14.92,0,0,0,3.65-4.3c.77-1.29,1.18-2.22,1.56-2.16s.6,1.13.2,2.85a10.74,10.74,0,0,1-10.21,8C347.74,126.38,346.74,125.87,346.78,125.52Z" transform="translate(-27 -35.89)"/><path id="elemhhbea7o3v" class="cls-6" d="M356.07,104.15a7.19,7.19,0,0,1-.46-2.39,17.79,17.79,0,0,1,3-11.22,7.22,7.22,0,0,1,1.59-1.85A26.85,26.85,0,0,0,356.67,96,27.23,27.23,0,0,0,356.07,104.15Z" transform="translate(-27 -35.89)"/><path id="eltps5rvpty5" class="cls-9" d="M390.36,80.4c.95,3.22,6.2,7.09,8.55,9.5,4.48,4.58,5.41,6.14,6.08,17,1.72-3.88,3-7.66,2.55-11.88a17.59,17.59,0,0,0-5.4-11.22,13.71,13.71,0,0,0-11.78-3.41" transform="translate(-27 -35.89)"/><path id="elp0z9siapwdq" class="cls-10" d="M442.9,174.43s-5.38,22.36-7.59,32C433,216.7,427.86,240,414.22,236.6c-10.38-2.56-8.07-16-8.07-16L415,189.87l8.2.93,7.53-18.54,8.12-8.55Z" transform="translate(-27 -35.89)"/><path id="eljhlqc2pjoo" class="cls-13" d="M409.77,221.4a11.42,11.42,0,0,1-.27-5,15.62,15.62,0,0,1,1.92-5.06,43.28,43.28,0,0,1,4-5.42,43.23,43.23,0,0,0,4-5.51,34.38,34.38,0,0,0,2.42-5,30.12,30.12,0,0,0,1.12-3.57,6.18,6.18,0,0,0,.25-1.35,8.62,8.62,0,0,0-.46,1.29c-.27.83-.67,2-1.28,3.48a37.46,37.46,0,0,1-2.49,4.89,47,47,0,0,1-4,5.42,41.71,41.71,0,0,0-4,5.52,15.35,15.35,0,0,0-1.87,5.25,9.72,9.72,0,0,0,.16,3.76,5.86,5.86,0,0,0,.33,1C409.69,221.3,409.75,221.41,409.77,221.4Z" transform="translate(-27 -35.89)"/><path id="elue3sgncr4v9" class="cls-10" d="M430.1,174c0-.4.2-6.91.33-8.61a8.79,8.79,0,0,1,.89-3.09,2.62,2.62,0,0,1,3.54-1.1,2.51,2.51,0,0,1,.54.38l.15.13a11.55,11.55,0,0,1,3.21-3.87c1.91-1.25,3.48-2.1,5.12-1.12a2.85,2.85,0,0,1,1.58,2.37s2.43-.33,3.48.65,0,3.94,0,3.94,2.16-.66,2.69.92a4.41,4.41,0,0,1-.46,3.22s1.7.52,1.9,1.77-1.7,2.62-1.7,2.62l-5.93,4.72a11.3,11.3,0,0,1-4.57,6C436.75,184.51,430.1,174,430.1,174Z" transform="translate(-27 -35.89)"/><path id="elfm9zy1b6f2" class="cls-13" d="M434.62,166.91c.06,0,.05.25-.13.55a2,2,0,0,1-1,.88,2.11,2.11,0,0,1-1.36,0c-.33-.11-.49-.27-.46-.34a5.31,5.31,0,0,0,1.63-.21C434.12,167.47,434.48,166.84,434.62,166.91Z" transform="translate(-27 -35.89)"/><path id="ell882442m24p" class="cls-13" d="M439.32,161.09c-.09.12-.66-.28-.76-1.06s.33-1.31.45-1.22,0,.57.08,1.15S439.43,161,439.32,161.09Z" transform="translate(-27 -35.89)"/><path id="elzhkanlua5vq" class="cls-13" d="M449.23,163.62a8.27,8.27,0,0,1-1.31,1.38,40.54,40.54,0,0,1-3.69,2.7,5.75,5.75,0,0,1-2.36,1.1,2.12,2.12,0,0,1-2-.75,1.47,1.47,0,0,1-.16-1.46c.16-.32.36-.4.38-.37s-.11.16-.19.45a1.38,1.38,0,0,0,.27,1.16,1.79,1.79,0,0,0,1.67.48,5.52,5.52,0,0,0,2.13-1.05c1.49-1,2.82-1.87,3.75-2.56A9.43,9.43,0,0,1,449.23,163.62Z" transform="translate(-27 -35.89)"/><path id="el4n6pn1tgjff" class="cls-13" d="M451.13,167.79a37.54,37.54,0,0,1-5.65,2.88,5.7,5.7,0,0,1-2.45.72,1.93,1.93,0,0,1-1.84-1.1,1.12,1.12,0,0,1,0-.88,1.08,1.08,0,0,1,.43-.49c.33-.18.54-.08.53-.06a.75.75,0,0,0-.41.23.84.84,0,0,0-.19,1,1.55,1.55,0,0,0,1.49.75,5.72,5.72,0,0,0,2.23-.71A38.91,38.91,0,0,1,451.13,167.79Z" transform="translate(-27 -35.89)"/><path id="elgdhr0e5fj6p" class="cls-13" d="M448.25,173.12c0,.06-.32.31-1,.47a4.68,4.68,0,0,1-1.18.12,3.13,3.13,0,0,1-1.47-.33.91.91,0,0,1-.43-.85,1.42,1.42,0,0,1,.32-.73,4.77,4.77,0,0,1,.85-.83c.54-.4.94-.53,1-.47s-.28.31-.72.76a6.15,6.15,0,0,0-.7.83c-.23.33-.31.67,0,.84a3.35,3.35,0,0,0,1.21.29,5,5,0,0,0,1.09,0C447.84,173.16,448.22,173.05,448.25,173.12Z" transform="translate(-27 -35.89)"/><path id="el69nm55aswd3" class="cls-9" d="M442.62,174.11a4.84,4.84,0,1,0-6.14,4.49l-.05,1.35,1.32,1-1.39.78-.06,1.69,1.32,1-1.39.78-.05,1.45.8.6-.84.47v.85l1,1.14,2-1.19.38-10A4.86,4.86,0,0,0,442.62,174.11Zm-4.71-3.72a1.39,1.39,0,1,1-1.44,1.34,1.39,1.39,0,0,1,1.44-1.34Z" transform="translate(-27 -35.89)"/><path id="eljntyf8lirdg" class="cls-14" d="M442.62,174.11a4.84,4.84,0,1,0-6.14,4.49l-.05,1.35,1.32,1-1.39.78-.06,1.69,1.32,1-1.39.78-.05,1.45.8.6-.84.47v.85l1,1.14,2-1.19.38-10A4.86,4.86,0,0,0,442.62,174.11Zm-4.71-3.72a1.39,1.39,0,1,1-1.44,1.34,1.39,1.39,0,0,1,1.44-1.34Z" transform="translate(-27 -35.89)"/><path id="elpzu0cxkwly8" class="cls-9" d="M437.91,170.39a1.34,1.34,0,0,0-.33.06,1.37,1.37,0,0,0-.76.48A1.34,1.34,0,1,0,439,171a1.44,1.44,0,0,0-.72-.54c-.2-.06-.33-.06-.33-.08h.31a1.39,1.39,0,0,1,.77.53,1.43,1.43,0,0,1,.17,1.37,1.41,1.41,0,0,1-.53.65,1.45,1.45,0,0,1-1.71-.06,1.55,1.55,0,0,1-.48-.7,1.46,1.46,0,0,1,.27-1.35,1.4,1.4,0,0,1,.82-.47h.25Z" transform="translate(-27 -35.89)"/><path id="ele8qnr68m73q" class="cls-9" d="M442.62,174.11v.39a5,5,0,0,1-.24,1.08,4.76,4.76,0,0,1-.9,1.54,4.87,4.87,0,0,1-2,1.38h0c-.1,2.59-.22,6-.36,10h0l-2,1.2h0l-1-1.14h0v-.85h0l.84-.47v.1l-.81-.61h0a14.05,14.05,0,0,1,.05-1.45h0l1.39-.77v.1l-1.32-1h0V183a10.2,10.2,0,0,1,.05-1.24h0l1.39-.78v.1l-1.32-1h0a12,12,0,0,1,.05-1.35v.06a5,5,0,0,1-2-1.12,4.56,4.56,0,0,1-.73-.85,4.88,4.88,0,0,1,7.76-5.89,4.68,4.68,0,0,1,.93,1.71l.06.18V173a3.23,3.23,0,0,0,.06.33c0,.11.05.37.05.51v-.16a4.28,4.28,0,0,0-.13-.83v-.18l-.06-.18a4.7,4.7,0,0,0-.93-1.68,4.79,4.79,0,0,0-8.11,4.85,4.25,4.25,0,0,0,.5,1,4.38,4.38,0,0,0,.72.83,4.71,4.71,0,0,0,1.95,1.09h.05a12.18,12.18,0,0,1-.05,1.35h0l1.33,1h.07l-.08,0-1.39.77v1.64h0l1.32,1,.07.06h-.08l-1.39.78h0a13.57,13.57,0,0,1-.05,1.45h0l.81.6.07.06h-.08l-.84.48h0v.84h0l1,1.14h-.07l2-1.19v0c.16-4,.29-7.44.39-10h0a4.84,4.84,0,0,0,1.94-1.34,5,5,0,0,0,.9-1.52,5.67,5.67,0,0,0,.26-1.08v-.28A.64.64,0,0,0,442.62,174.11Z" transform="translate(-27 -35.89)"/><path id="elrwlovlo490r" class="cls-6" d="M442.12,173.84a4.85,4.85,0,1,0-6.14,4.49h0l-.05,1.34,1.32,1-1.39.77-.06,1.69,1.32,1-1.39.77-.06,1.45.81.61-.85.47v.84l1,1.14,2-1.19.38-10A4.85,4.85,0,0,0,442.12,173.84Zm-4.71-3.72a1.39,1.39,0,0,1,1.34,1.44h0a1.39,1.39,0,0,1-2.78-.11h0A1.39,1.39,0,0,1,437.41,170.12Z" transform="translate(-27 -35.89)"/><path id="elun73gxsbcs" class="cls-14" d="M442.12,173.84a4.85,4.85,0,1,0-6.14,4.49h0l-.05,1.34,1.32,1-1.39.77-.06,1.69,1.32,1-1.39.77-.06,1.45.81.61-.85.47v.84l1,1.14,2-1.19.38-10A4.85,4.85,0,0,0,442.12,173.84Zm-4.71-3.72a1.39,1.39,0,0,1,1.34,1.44h0a1.39,1.39,0,0,1-2.78-.11h0A1.39,1.39,0,0,1,437.41,170.12Z" transform="translate(-27 -35.89)"/><path id="elqek2sa4aje" class="cls-9" d="M437.41,170.12h-.34a1.35,1.35,0,0,0,.24,2.67,1.35,1.35,0,0,0,.55-2.6l-.12,0-.33-.08h.34a1.41,1.41,0,0,1,.78.53,1.44,1.44,0,0,1-.36,2,1.43,1.43,0,0,1-1.71-.07A1.31,1.31,0,0,1,436,172a1.42,1.42,0,0,1,.94-1.79l.14,0h.26Z" transform="translate(-27 -35.89)"/><path id="elaug9dcvmtqr" class="cls-9" d="M442.12,173.84v.38a5.05,5.05,0,0,1-.24,1.09,5.19,5.19,0,0,1-.9,1.54,5,5,0,0,1-2,1.38h0c-.09,2.59-.21,6-.35,10h0l-2,1.19h0l-1-1.14h0v-.84h0l.84-.48v.1l-.8-.6h0a14.44,14.44,0,0,1,.05-1.45h0l1.39-.78v.1l-1.32-1h0v-.45a10.29,10.29,0,0,1,0-1.24h0l1.39-.77v.1l-1.32-1h0a12.18,12.18,0,0,1,0-1.35v.06a4.73,4.73,0,0,1-2-1.12,4.61,4.61,0,0,1-.74-.85,4.71,4.71,0,0,1-.51-1,4.9,4.9,0,0,1,2.8-6.34l.2-.07a5.53,5.53,0,0,1,5.29,1.2,4.83,4.83,0,0,1,.93,1.71l.06.19v.18a3,3,0,0,0,.06.32c0,.1.05.38.05.51v0a2.1,2.1,0,0,0-.05-.52c-.05-.21-.05-.2-.07-.32v-.17l-.06-.19a4.88,4.88,0,0,0-.94-1.68,4.71,4.71,0,0,0-2.11-1.43,4.8,4.8,0,0,0-6,6.28,4.71,4.71,0,0,0,.51,1,4.38,4.38,0,0,0,.72.83,4.89,4.89,0,0,0,1.95,1.09h0v1.35c.44.32.88.66,1.32,1l.08.06h-.08l-1.39.78v-.05a10.37,10.37,0,0,1-.05,1.24v.44h0l1.32,1h.08l-.08.05-1.39.77h0a11.33,11.33,0,0,1-.06,1.45h0l.81.61.07.05h-.08l-.85.47h0v.84h0l1,1.15h-.07l2-1.19v0c.15-4,.29-7.44.39-10h0a5,5,0,0,0,2-1.35,5.31,5.31,0,0,0,.9-1.52,4.92,4.92,0,0,0,.26-1.07v-.29A.31.31,0,0,1,442.12,173.84Z" transform="translate(-27 -35.89)"/><path id="el834t4bttkx9" class="cls-9" d="M441.54,173.88a5.58,5.58,0,0,0-.12-1,3.83,3.83,0,0,0-.43-1.14,4.27,4.27,0,0,0-1-1.24,4.19,4.19,0,0,0-4-.74,3.94,3.94,0,0,0-1.09.53,4.66,4.66,0,0,0-.49.39,4.79,4.79,0,0,0-.43.47,4.2,4.2,0,0,0-.19,5,5,5,0,0,0,.4.51,4.58,4.58,0,0,0,.46.42,3.94,3.94,0,0,0,1,.61,4.28,4.28,0,0,0,2.21.27,4,4,0,0,0,1.8-.71,4.3,4.3,0,0,0,1.13-1.16,4.47,4.47,0,0,0,.51-1.11,6.81,6.81,0,0,0,.2-1v.61a1.7,1.7,0,0,1-.1.44,4,4,0,0,1-.51,1.13,4.26,4.26,0,0,1-3,1.93,4.37,4.37,0,0,1-2.26-.26,4,4,0,0,1-1.07-.63c-.17-.14-.33-.28-.48-.43a4,4,0,0,1-.4-.52,4.29,4.29,0,0,1,.19-5.11,5.12,5.12,0,0,1,.44-.49,4.91,4.91,0,0,1,.51-.39,4.21,4.21,0,0,1,3.39-.64,4.09,4.09,0,0,1,1.78.88,4.48,4.48,0,0,1,1.42,2.43,3.47,3.47,0,0,1,.06.45,1.82,1.82,0,0,1,0,.33V174Z" transform="translate(-27 -35.89)"/><path id="elx62v57g63ah" class="cls-9" d="M439,171.58a2.63,2.63,0,0,0-.06-.39,1.49,1.49,0,0,0-.56-.89,1.63,1.63,0,0,0-.66-.32,1.56,1.56,0,0,0-.83.05,1.47,1.47,0,0,0-.75.52,1.51,1.51,0,0,0-.33.91,1.56,1.56,0,0,0,1,1.52,1.62,1.62,0,0,0,1.51-.16,1.65,1.65,0,0,0,.62-.85,2.74,2.74,0,0,0,.09-.39v.11a1.57,1.57,0,0,1,0,.3,1.71,1.71,0,1,1-1.21-2.07,1.79,1.79,0,0,1,.69.34,1.62,1.62,0,0,1,.55,1,1.5,1.5,0,0,1,0,.3S439,171.58,439,171.58Z" transform="translate(-27 -35.89)"/><path id="elmll64udovbc" class="cls-9" d="M438,188.45s0-2.29.13-5.1.22-5.1.25-5.1,0,2.28-.13,5.1S438,188.45,438,188.45Z" transform="translate(-27 -35.89)"/><path id="elagzxo42z9a5" class="cls-1" d="M437.83,170.6a.74.74,0,0,1-.65,0v-6.15l.65.05Z" transform="translate(-27 -35.89)"/><path id="elyfpucra0cp" class="cls-9" d="M437.5,170.7a.76.76,0,0,1-.33-.08h0v-6.19l.7,0v6.14h0A.8.8,0,0,1,437.5,170.7Zm-.29-.12a.68.68,0,0,0,.59,0v-6.06h-.6Z" transform="translate(-27 -35.89)"/><path id="elzk2w6jdjre" class="cls-10" d="M435,161.43a13.49,13.49,0,0,0,1.73,1.27,2.34,2.34,0,0,1,1.06,1.79,2.19,2.19,0,0,1-1.28,1.69,4,4,0,0,1-5.42-1.63h0" transform="translate(-27 -35.89)"/><path id="elkoumhns8ovn" class="cls-13" d="M431.13,164.55a11.27,11.27,0,0,0,1.36,1.22,3.95,3.95,0,0,0,4,.11,1.71,1.71,0,0,0,1-1.74,2.85,2.85,0,0,0-1.11-1.45c-.95-.64-1.48-1.2-1.4-1.26a12.58,12.58,0,0,1,1.61.95A3,3,0,0,1,438,164a1.79,1.79,0,0,1-.21,1.34,2.82,2.82,0,0,1-1,1,4.23,4.23,0,0,1-2.56.52,4.15,4.15,0,0,1-2-.78A2.65,2.65,0,0,1,431.13,164.55Z" transform="translate(-27 -35.89)"/><path id="eli9qm804lgak" class="cls-10" d="M441.16,158.88a23.91,23.91,0,0,0-3,4.4,3.6,3.6,0,0,0-.45,1.57,1.42,1.42,0,0,0,2.1,1.4,4.38,4.38,0,0,0,1.14-.81,28.13,28.13,0,0,0,3.72-4.14,3.76,3.76,0,0,0,.66-1.17,1.62,1.62,0,0,0-.08-1.31" transform="translate(-27 -35.89)"/><path id="elnjcscf8v8xd" class="cls-13" d="M445.26,158.81a1,1,0,0,1,.28.74,3.17,3.17,0,0,1-.82,2,21.48,21.48,0,0,1-2,2.46c-.4.44-.84.89-1.31,1.33a4.92,4.92,0,0,1-1.7,1.22,1.88,1.88,0,0,1-1.15,0,1.52,1.52,0,0,1-.88-.75,2.49,2.49,0,0,1,0-2,12.72,12.72,0,0,1,1.6-2.77,11.68,11.68,0,0,1,1.9-2.19,22.8,22.8,0,0,1-1.59,2.41,14.09,14.09,0,0,0-1.44,2.71,1.92,1.92,0,0,0,0,1.59,1.11,1.11,0,0,0,1.41.46,4.63,4.63,0,0,0,1.5-1.09c.47-.43.91-.86,1.31-1.28a24.07,24.07,0,0,0,2-2.35,3.4,3.4,0,0,0,.92-1.78A4.22,4.22,0,0,0,445.26,158.81Z" transform="translate(-27 -35.89)"/></g><g id="freepik--Floor--inject-5"><path id="elyy5kur7n5jo" class="cls-9" d="M461,480.17c0,.15-97.17.26-217,.26s-217-.11-217-.26,97.15-.26,217-.26S461,480,461,480.17Z" transform="translate(-27 -35.89)"/></g><g id="freepik--Plant--inject-5"><path id="eluy908flb1ss" class="cls-6" d="M83.66,342.46c9.51-14.56,9.15-35.84-2.22-49-3.53-4.09-8.46-7.64-13.84-7.18s-9.94,5.19-11.6,10.46-1.09,11-.11,16.41c1.38,7.62,3.69,15.41,9,21.07s12,11.95,18.82,8.24" transform="translate(-27 -35.89)"/><path id="elnb3ynh3utl" class="cls-6" d="M79.41,412a21.73,21.73,0,0,0-6.06-24.7c-2.19-1.79-5-3.17-7.78-2.44s-4.65,3.57-5,6.44A18,18,0,0,0,62,399.81c1.4,3.79,3.3,7.6,6.53,10s7.76,4.72,10.92,2.19" transform="translate(-27 -35.89)"/><path id="elgng2u974k0o" class="cls-6" d="M102.37,407.05c-2.62-12.91,4.18-27.15,15.86-33.23,3.63-1.88,8.09-3,11.75-1.17s5.54,6.44,5.24,10.62-2.3,8-4.52,11.57c-3.1,5-6.91,9.81-12.21,12.31s-12.39,4.41-16.12-.1" transform="translate(-27 -35.89)"/><path id="ell136wuzp6wq" class="cls-6" d="M100.72,372.15c-4.56-14.71,3.17-32.54,16-41,4-2.62,9.06-4.44,13.53-2.74s7.2,6.84,7.34,11.73-1.74,9.6-3.9,14c-3,6.15-6.89,12.22-12.76,15.75s-15.38,7-20.25,2.24" transform="translate(-27 -35.89)"/><path id="elokpe24m7079" class="cls-9" d="M91.57,444a2.88,2.88,0,0,0,.14-.71c.08-.53.19-1.21.31-2.05.06-.45.13-.95.21-1.48s.21-1.13.33-1.75c.24-1.26.49-2.69.9-4.24.19-.79.39-1.61.59-2.46s.51-1.71.77-2.62c.49-1.82,1.22-3.71,1.9-5.72a99.45,99.45,0,0,1,13-24.28c1.3-1.68,2.47-3.33,3.72-4.74.61-.73,1.2-1.42,1.76-2.1L117,390c1.07-1.2,2.12-2.2,3-3.09l1.27-1.25,1.12-1,1.54-1.39a3.08,3.08,0,0,0,.51-.51,3.51,3.51,0,0,0-.59.42l-1.62,1.3-1.16.95-1.31,1.22c-.94.87-2,1.85-3.12,3l-1.76,1.83c-.57.67-1.17,1.37-1.79,2.08-1.28,1.41-2.47,3.06-3.8,4.74A106.94,106.94,0,0,0,101.85,410a103.52,103.52,0,0,0-5.66,12.69c-.67,2-1.38,3.93-1.85,5.78-.26.91-.5,1.79-.74,2.64s-.38,1.69-.56,2.48c-.38,1.57-.6,3-.81,4.28-.1.63-.2,1.22-.29,1.76s-.1,1-.15,1.5c-.08.84-.14,1.53-.19,2.07A2.48,2.48,0,0,0,91.57,444Z" transform="translate(-27 -35.89)"/><path id="elc7a3lednqo" class="cls-9" d="M91.9,446.67a1.5,1.5,0,0,0,0-.3,4.61,4.61,0,0,0-.06-.85c-.07-.8-.18-1.89-.3-3.27-.07-.71-.15-1.5-.24-2.35s-.08-1.81-.14-2.82c-.07-2-.27-4.32-.19-6.86v-4c0-1.39.14-2.83.21-4.32.1-3,.51-6.16.87-9.51a136.26,136.26,0,0,1,12.38-41.77c1.53-3,2.91-5.88,4.46-8.44.76-1.29,1.43-2.57,2.18-3.74l2.16-3.36c1.33-2.18,2.74-4,3.9-5.65.6-.82,1.13-1.59,1.66-2.28l1.48-1.85,2-2.58.52-.68c.11-.15.17-.23.16-.24s-.08.06-.21.2l-.56.64-2.13,2.51L118.57,347c-.54.68-1.09,1.44-1.7,2.25-1.19,1.64-2.63,3.45-4,5.61l-2.2,3.35c-.76,1.17-1.45,2.45-2.22,3.74-1.57,2.56-3,5.45-4.52,8.45A132.89,132.89,0,0,0,91.5,412.32c-.35,3.36-.74,6.55-.82,9.55-.05,1.5-.17,2.95-.18,4.34s0,2.73,0,4c0,2.55.18,4.86.29,6.88.07,1,.11,2,.19,2.82s.2,1.64.29,2.36c.17,1.37.31,2.46.41,3.26,0,.34.1.61.13.84A1.71,1.71,0,0,0,91.9,446.67Z" transform="translate(-27 -35.89)"/><path id="elnk06tt3g8sc" class="cls-9" d="M67.12,303.86a1.66,1.66,0,0,0,.13.27c.11.2.24.46.41.76l1.62,2.91c.35.63.77,1.32,1.18,2.1l1.27,2.56,1.47,2.94c.49,1.05,1,2.18,1.49,3.36s1.08,2.42,1.61,3.72,1,2.69,1.58,4.1l.83,2.16c.25.75.51,1.5.77,2.27.51,1.53,1,3.11,1.59,4.72,2,6.53,3.93,13.79,5.54,21.51s2.66,15.16,3.47,21.94,1.21,12.93,1.35,18.1c.13,2.58.16,4.91.16,7V414a1.41,1.41,0,0,0,0-.29,4.76,4.76,0,0,1,.06-.86c0-.82.09-1.93.16-3.33s.11-3.22.11-5.27,0-4.4-.07-7c-.09-5.18-.55-11.33-1.22-18.14a221.38,221.38,0,0,0-3.43-22,216.22,216.22,0,0,0-5.6-21.55L80,330.83c-.26-.77-.52-1.53-.78-2.27l-.85-2.16-1.62-4.1c-.54-1.31-1.12-2.53-1.65-3.72s-1-2.31-1.54-3.35-1-2-1.51-2.93-.92-1.76-1.32-2.55-.86-1.45-1.23-2.07l-1.73-2.85c-.18-.3-.34-.54-.46-.73S67.13,303.85,67.12,303.86Z" transform="translate(-27 -35.89)"/><path id="el624s7z6wqmj" class="cls-9" d="M70.36,393.18a11.94,11.94,0,0,0,1,1.78c.7,1.11,1.65,2.76,2.77,4.82s2.36,4.56,3.61,7.39a88.06,88.06,0,0,1,3.5,9.45,97.35,97.35,0,0,1,2.44,9.77,71.63,71.63,0,0,1,1.19,8.15c.19,2.34.38,4.22.43,5.53a12.18,12.18,0,0,0,.17,2,14.8,14.8,0,0,0,.07-2,54.16,54.16,0,0,0-.23-5.57q-.33-4.12-1.07-8.21a92.62,92.62,0,0,0-2.41-9.86,88.8,88.8,0,0,0-3.57-9.49c-1.28-2.84-2.56-5.34-3.74-7.38a49.6,49.6,0,0,0-3-4.73A15.78,15.78,0,0,0,70.36,393.18Z" transform="translate(-27 -35.89)"/><polygon id="elyr6wzzlwbr" class="cls-12" points="83.26 401.58 41.45 401.58 46.51 444.28 78.05 444.28 83.26 401.58"/><polygon id="eldcr517rn7m9" class="cls-9" points="81.73 439.67 78.18 444.28 46.51 444.28 42.86 439.82 81.73 439.67"/><path id="el387t867h5d4" class="cls-2" d="M70.08,450c0,.17,8.68.31,19.38.31s19.37-.14,19.37-.31-8.67-.31-19.37-.31S70.08,449.86,70.08,450Z" transform="translate(-27 -35.89)"/><path id="el0ibiu64vr7ul" class="cls-2" d="M70.08,452.87c0,.17,8.68.31,19.38.31s19.37-.14,19.37-.31-8.67-.31-19.37-.31S70.08,452.7,70.08,452.87Z" transform="translate(-27 -35.89)"/><path id="elwg317naxk9i" class="cls-2" d="M70.6,455.62c0,.18,8.37.32,18.7.32s18.7-.14,18.7-.32-8.37-.31-18.7-.31S70.6,455.45,70.6,455.62Z" transform="translate(-27 -35.89)"/><path id="el953ve6rhsrr" class="cls-9" d="M103.87,345.44a1.41,1.41,0,0,0,0,.41c0,.31,0,.7.09,1.16.11,1.07.25,2.51.43,4.25.38,3.59.94,8.55,1.58,14a1.76,1.76,0,0,0,.07.61v.19h.19c5.37.08,10.2.13,13.69.15h5.64a1.58,1.58,0,0,0-.38,0l-1.12-.05-4.13-.13c-3.49-.1-8.32-.2-13.7-.28l.21.18a1.88,1.88,0,0,0-.07-.61c-.64-5.47-1.24-10.42-1.7-14-.23-1.74-.42-3.17-.57-4.24-.06-.46-.12-.84-.17-1.15A1.09,1.09,0,0,0,103.87,345.44Z" transform="translate(-27 -35.89)"/><path id="el3t90641yqou" class="cls-9" d="M113.38,332.67a1.48,1.48,0,0,0,0,.42v5.61c.06,3.72.16,8.86.3,14.53v.89h.22A129.34,129.34,0,0,1,128,353.8c1.79,0,3.24.13,4.24.18h1.55a1.5,1.5,0,0,1-.39-.08l-1.15-.13c-1-.1-2.44-.22-4.24-.32a112.44,112.44,0,0,0-14.1.19l.23.21v-.67c-.14-5.68-.29-10.81-.42-14.53-.07-1.81-.13-3.3-.17-4.4a6,6,0,0,0-.07-1.2A2.32,2.32,0,0,0,113.38,332.67Z" transform="translate(-27 -35.89)"/><path id="elob5i10wftvb" class="cls-9" d="M124.5,328.32a8.4,8.4,0,0,0-.26,1.23c-.16.86-.36,2-.62,3.36-.54,2.84-1.39,6.75-2.58,11l-.13.45.43-.2.5-.25A36.23,36.23,0,0,1,133,340.68c1.49-.18,2.7-.25,3.53-.28a6.3,6.3,0,0,0,1.3-.07.91.91,0,0,0-.33,0c-.22,0-.55-.05-1-.05a30.19,30.19,0,0,0-3.56.15,33.93,33.93,0,0,0-11.29,3.17l-.51.25.3.24A107.59,107.59,0,0,0,123.91,333c.24-1.43.4-2.59.49-3.39A6.24,6.24,0,0,0,124.5,328.32Z" transform="translate(-27 -35.89)"/><path id="ell7t5pic7dvi" class="cls-9" d="M65.46,406.17c0,.06,1.22-.06,3.17-.14a53.54,53.54,0,0,1,7.6.25c.6.06,1.19.14,1.75.22h.2v-.19c.46-2.53.83-4.76,1.09-6.36a18.57,18.57,0,0,0,.33-2.58,18.24,18.24,0,0,0-.6,2.53c-.33,1.59-.76,3.81-1.23,6.33l.24-.17c-.57-.08-1.16-.16-1.77-.22a42.61,42.61,0,0,0-7.66-.13c-1,.08-1.77.18-2.31.26A3.2,3.2,0,0,0,65.46,406.17Z" transform="translate(-27 -35.89)"/><path id="elftbquwiz7hr" class="cls-9" d="M61.52,398.32c0,.07,1.17-.2,3.06-.44a33.47,33.47,0,0,1,7.42-.07l1.31.16h.22v-.21c.26-2.6.47-4.91.61-6.56a17.06,17.06,0,0,0,.13-2.67,19.58,19.58,0,0,0-.41,2.64c-.21,1.65-.47,3.95-.75,6.54l.24-.18L72,397.39a29,29,0,0,0-7.5.2,21,21,0,0,0-2.23.47A3.33,3.33,0,0,0,61.52,398.32Z" transform="translate(-27 -35.89)"/><path id="elia16jnpsfo" class="cls-9" d="M58.68,324a2.1,2.1,0,0,0,.42.22l1.22.54,4.52,1.92,15,6.21.81.33.19.08.08-.19c2.47-5.58,4.69-10.6,6.33-14.29l1.86-4.32.49-1.18a2.16,2.16,0,0,0,.14-.43,1.87,1.87,0,0,0-.22.39c-.15.31-.33.69-.56,1.15l-2,4.27-6.45,14.24.28-.11L80,332.5l-15-6.1-4.57-1.8-1.25-.47A1.76,1.76,0,0,0,58.68,324Z" transform="translate(-27 -35.89)"/><path id="elseto4ye0c7" class="cls-9" d="M55,305.93a2.51,2.51,0,0,0,.37.27l1.1.71,4.08,2.54,13.61,8.31.22.13.09-.24.25-.66,5.71-15.4c.69-1.93,1.26-3.52,1.68-4.68l.44-1.28a1.83,1.83,0,0,0,.12-.46,3.36,3.36,0,0,0-.2.43L82,296.85c-.44,1.15-1.06,2.72-1.81,4.64-1.5,4-3.55,9.38-5.82,15.36-.08.22-.17.45-.24.65l.3-.11L60.72,309.2l-4.15-2.43-1.14-.64A2.39,2.39,0,0,0,55,305.93Z" transform="translate(-27 -35.89)"/><path id="elf6i72fji4e4" class="cls-9" d="M56.22,296.29a5.06,5.06,0,0,0,.9.53c.59.33,1.44.81,2.47,1.45a43.79,43.79,0,0,1,7.57,5.93l.53.51-.18-.72c-.18-.74-.35-1.53-.48-2.34a27.36,27.36,0,0,1,.59-11.14,33.38,33.38,0,0,1,1.07-3.25,8.3,8.3,0,0,0,.45-1.17,7.4,7.4,0,0,0-.6,1.11,26.56,26.56,0,0,0-1.21,3.22,26.12,26.12,0,0,0-.72,11.29c.13.83.31,1.63.5,2.39l.35-.2a40.35,40.35,0,0,0-7.73-5.9c-1.06-.61-1.93-1.06-2.54-1.34A5.7,5.7,0,0,0,56.22,296.29Z" transform="translate(-27 -35.89)"/><path id="el6zl52c64pm3" class="cls-9" d="M103.93,390a5.55,5.55,0,0,0,.19,1.08c.14.69.35,1.69.58,2.93a73.14,73.14,0,0,1,1.13,9.91v.19h1.11c4.15.25,7.9.46,10.62.58l3.22.13a5.82,5.82,0,0,0,1.18,0,5.77,5.77,0,0,0-1.17-.15l-3.21-.27c-2.72-.2-6.47-.45-10.61-.7l-.94-.05.2.2A62.85,62.85,0,0,0,105,394c-.27-1.25-.52-2.24-.72-2.92A5.92,5.92,0,0,0,103.93,390Z" transform="translate(-27 -35.89)"/><path id="elamm3ahcdoes" class="cls-9" d="M112.14,378.26a5.71,5.71,0,0,0,.07,1.09c.09.77.2,1.77.34,3,.3,2.51.75,6,1.28,9.92v.17H114l1.34.09c4.25.29,8.08.73,10.85,1.09l3.28.44a8.13,8.13,0,0,0,1.2.12,6,6,0,0,0-1.18-.28c-.76-.16-1.88-.36-3.26-.58-2.76-.43-6.6-.92-10.86-1.21L114,392l.2.18c-.54-3.91-1-7.4-1.42-9.9-.19-1.19-.34-2.18-.46-2.95A5,5,0,0,0,112.14,378.26Z" transform="translate(-27 -35.89)"/><path id="el2o5dfc4dyo" class="cls-9" d="M121.81,373.18c-.06,0,.2,1.15.49,3a52.47,52.47,0,0,1,.68,7.4v.23h.24l.7-.09a65,65,0,0,1,7.89-.47h2.41a4.31,4.31,0,0,0,.88,0,3.67,3.67,0,0,0-.87-.14c-.57-.06-1.39-.13-2.41-.16a50.33,50.33,0,0,0-7.95.34l-.71.09.24.21a44.22,44.22,0,0,0-.81-7.44c-.19-.93-.37-1.68-.51-2.19A2.78,2.78,0,0,0,121.81,373.18Z" transform="translate(-27 -35.89)"/><path id="elx50ajavwje" class="cls-9" d="M66.73,385a38.15,38.15,0,0,0,1.87,4.24,38.13,38.13,0,0,0,2,4.18A19.32,19.32,0,0,0,69,389,19.74,19.74,0,0,0,66.73,385Z" transform="translate(-27 -35.89)"/><path id="elucemblwmw3q" class="cls-9" d="M61.48,390.53a42.63,42.63,0,0,1,4.75,1,42.65,42.65,0,0,1,4.46,1.9,10.72,10.72,0,0,0-4.34-2.3A10.77,10.77,0,0,0,61.48,390.53Z" transform="translate(-27 -35.89)"/></g></svg>